<?xml version="1.0" encoding="UTF-8"?>
<!DOCTYPE svg PUBLIC "-//W3C//DTD SVG 1.1//EN" "http://www.w3.org/Graphics/SVG/1.1/DTD/svg11.dtd">
<!-- Creator: CorelDRAW 2021 (64-Bit) -->
<svg xmlns="http://www.w3.org/2000/svg" xml:space="preserve" width="11.6929in" height="8.26772in" version="1.1" shape-rendering="geometricPrecision" text-rendering="geometricPrecision" image-rendering="optimizeQuality" fill-rule="evenodd" clip-rule="evenodd"
viewBox="0 0 11692.91 8267.72"
 xmlns:xlink="http://www.w3.org/1999/xlink"
 xmlns:xodm="http://www.corel.com/coreldraw/odm/2003">
 <defs>
    <clipPath id="id0">
     <path d="M6882.15 692.96c1901.9,0 3443.7,1541.8 3443.7,3443.7 0,1901.91 -1541.8,3443.7 -3443.7,3443.7 -1901.91,0 -3443.7,-1541.8 -3443.7,-3443.7 0,-1901.91 1541.8,-3443.7 3443.7,-3443.7z"/>
    </clipPath>
 </defs>
 <g id="Layer_x0020_1">
  <metadata id="CorelCorpID_0Corel-Layer"/>
  <g id="_2534021898256">
   <circle fill="#0080FF" cx="4810.35" cy="4136.67" r="3929.45"/>
   <path fill="#86C2FF" d="M6882.15 207.22c2170.17,0 3929.44,1759.27 3929.44,3929.44 0,2170.17 -1759.27,3929.44 -3929.44,3929.44 -2170.17,0 -3929.45,-1759.27 -3929.45,-3929.44 0,-2170.17 1759.28,-3929.44 3929.45,-3929.44z"/>
   <path fill="white" d="M6882.15 692.96c1901.9,0 3443.7,1541.8 3443.7,3443.7 0,1901.91 -1541.8,3443.7 -3443.7,3443.7 -1901.91,0 -3443.7,-1541.8 -3443.7,-3443.7 0,-1901.91 1541.8,-3443.7 3443.7,-3443.7z"/>
   <g clip-path="url(#id0)">
    <g>
     <path id="_1" fill="#0080FF" d="M6243.64 4008.98c-60.07,33.08 -863.21,14.47 -933.87,16.07l0 1037.1c171.74,0 829.44,-25.28 944.4,14.94 36.44,110.22 4.15,2398.21 7.26,2725.51l1122.39 0.66c12.28,-657.94 0.85,-1376.55 0.85,-2045.76 0,-116.96 -24.77,-601.41 12.86,-662.9l873.13 -6.55 140.12 -1073.55 -1015.2 -6.11c0,-333.72 -50.71,-794.61 119.33,-1043.25 206.48,-301.95 533.88,-195.77 939.6,-231.06l-1.65 -893.58c-683.46,-162.38 -1431.74,-117.69 -1824.8,297.3 -546.41,576.89 -325.96,1297.15 -384.41,1871.19z"/>
    </g>
   </g>
   <path fill="none" d="M6882.15 692.96c1901.9,0 3443.7,1541.8 3443.7,3443.7 0,1901.91 -1541.8,3443.7 -3443.7,3443.7 -1901.91,0 -3443.7,-1541.8 -3443.7,-3443.7 0,-1901.91 1541.8,-3443.7 3443.7,-3443.7z"/>
  </g>
 </g>
</svg>
