<?xml version="1.0" encoding="UTF-8"?>
<!DOCTYPE svg PUBLIC "-//W3C//DTD SVG 1.1//EN" "http://www.w3.org/Graphics/SVG/1.1/DTD/svg11.dtd">
<!-- Creator: CorelDRAW 2021 (64-Bit) -->
<svg xmlns="http://www.w3.org/2000/svg" xml:space="preserve" width="11.6929in" height="8.26772in" version="1.1" shape-rendering="geometricPrecision" text-rendering="geometricPrecision" image-rendering="optimizeQuality" fill-rule="evenodd" clip-rule="evenodd"
viewBox="0 0 11692.91 8267.72"
 xmlns:xlink="http://www.w3.org/1999/xlink"
 xmlns:xodm="http://www.corel.com/coreldraw/odm/2003">
 <defs>
    <clipPath id="id0">
     <path d="M6907.17 609.77c1947.85,0 3526.9,1579.05 3526.9,3526.9 0,1947.85 -1579.04,3526.9 -3526.9,3526.9 -1947.85,0 -3526.89,-1579.05 -3526.89,-3526.9 0,-1947.85 1579.04,-3526.9 3526.89,-3526.9z"/>
    </clipPath>
 </defs>
 <g id="Layer_x0020_1">
  <metadata id="CorelCorpID_0Corel-Layer"/>
  <g id="_2534017372368">
   <circle fill="#86C2FF" cx="4785.32" cy="4136.67" r="4024.37"/>
   <path fill="#B8D3FF" d="M6907.17 112.29c2222.6,0 4024.37,1801.78 4024.37,4024.37 0,2222.6 -1801.77,4024.37 -4024.37,4024.37 -2222.6,0 -4024.37,-1801.78 -4024.37,-4024.37 0,-2222.6 1801.77,-4024.37 4024.37,-4024.37z"/>
   <path fill="#0061FF" d="M6907.17 609.77c1947.85,0 3526.9,1579.05 3526.9,3526.9 0,1947.85 -1579.04,3526.9 -3526.9,3526.9 -1947.85,0 -3526.89,-1579.05 -3526.89,-3526.9 0,-1947.85 1579.04,-3526.9 3526.89,-3526.9z"/>
   <g clip-path="url(#id0)">
    <g>
     <path id="_1" fill="white" fill-rule="nonzero" d="M9106.44 6397.62l-838.26 0 0 -1618.41c0,-342.65 -18.36,-563.96 -54.04,-663.9 -36.71,-100.96 -94.85,-178.46 -176.43,-234.54 -81.6,-56.1 -179.5,-83.64 -293.71,-83.64 -146.85,0 -278.4,39.78 -394.65,119.32 -117.28,79.54 -196.82,185.61 -239.65,316.14 -43.85,131.54 -65.28,374.26 -65.28,729.15l0 1435.87 -838.26 0 0 -3175.64 777.08 0 0 466.04c278.4,-355.9 628.19,-533.36 1051.41,-533.36 185.61,0 355.9,33.67 509.9,99.96 155,67.29 271.26,151.94 349.79,254.94 79.54,104.03 134.61,221.29 165.22,352.86 31.61,131.54 46.9,319.19 46.9,563.94l0 1971.27zm-3900.11 -4521.91c275.28,0 498.43,223.15 498.43,498.43 0,275.28 -223.15,498.43 -498.43,498.43 -275.28,0 -498.43,-223.15 -498.43,-498.43 0,-275.28 223.15,-498.43 498.43,-498.43zm419.12 4521.91l-838.26 0 0 -3175.64 838.26 0 0 3175.64z"/>
    </g>
   </g>
   <path fill="none" d="M6907.17 609.77c1947.85,0 3526.9,1579.05 3526.9,3526.9 0,1947.85 -1579.04,3526.9 -3526.9,3526.9 -1947.85,0 -3526.89,-1579.05 -3526.89,-3526.9 0,-1947.85 1579.04,-3526.9 3526.89,-3526.9z"/>
  </g>
 </g>
</svg>
