<?xml version="1.0" encoding="UTF-8"?>
<!DOCTYPE svg PUBLIC "-//W3C//DTD SVG 1.1//EN" "http://www.w3.org/Graphics/SVG/1.1/DTD/svg11.dtd">
<!-- Creator: CorelDRAW 2021 (64-Bit) -->
<svg xmlns="http://www.w3.org/2000/svg" xml:space="preserve" width="11.6929in" height="8.26772in" version="1.1" shape-rendering="geometricPrecision" text-rendering="geometricPrecision" image-rendering="optimizeQuality" fill-rule="evenodd" clip-rule="evenodd"
viewBox="0 0 11692.91 8267.72"
 xmlns:xlink="http://www.w3.org/1999/xlink"
 xmlns:xodm="http://www.corel.com/coreldraw/odm/2003">
 <g id="Layer_x0020_1">
  <metadata id="CorelCorpID_0Corel-Layer"/>
  <g id="_2534017514048">
   <circle fill="gray" cx="4807.46" cy="4136.67" r="3940.36"/>
   <path fill="#333333" d="M6885.02 196.31c2176.2,0 3940.36,1764.16 3940.36,3940.36 0,2176.2 -1764.16,3940.36 -3940.36,3940.36 -2176.2,0 -3940.35,-1764.16 -3940.35,-3940.36 0,-2176.2 1764.16,-3940.36 3940.35,-3940.36z"/>
   <circle fill="white" cx="6885.02" cy="4136.67" r="3453.27"/>
   <g>
    <path fill="black" d="M7212.81 3756.53l1799.46 2367.15 -1233.56 0 -1159.73 -1525.63 -1076.43 1525.63 -588.15 0 1359.57 -1926.82 -1556.21 -2047.2 1233.56 0 916.43 1205.57 850.67 -1205.57 588.2 0 -1133.81 1606.88zm-1756.1 -1260.25l2493.91 3280.76 362.7 0 -2493.96 -3280.76 -362.65 0z"/>
    <path fill="black" d="M5250.3 2393.93l2649.57 3485.47 619.86 0 -2649.57 -3485.47 -619.85 0zm2898.79 -141.92l-337.6 0 -900.64 1276.43 -970.31 -1276.43 -976.39 0 1476.69 1942.56 -1288.94 1826.75 337.6 0 1126.42 -1596.42 1213.56 1596.42 976.39 0 -1719.93 -2262.55 1063.15 -1506.76z"/>
   </g>
  </g>
 </g>
</svg>
