<?xml version="1.0" encoding="UTF-8"?>
<!DOCTYPE svg PUBLIC "-//W3C//DTD SVG 1.1//EN" "http://www.w3.org/Graphics/SVG/1.1/DTD/svg11.dtd">
<!-- Creator: CorelDRAW 2021 (64-Bit) -->
<svg xmlns="http://www.w3.org/2000/svg" xml:space="preserve" width="1.88976in" height="1.88976in" version="1.1" shape-rendering="geometricPrecision" text-rendering="geometricPrecision" image-rendering="optimizeQuality" fill-rule="evenodd" clip-rule="evenodd"
viewBox="0 0 1889.76 1889.76"
 xmlns:xlink="http://www.w3.org/1999/xlink"
 xmlns:xodm="http://www.corel.com/coreldraw/odm/2003">
 <defs>
   <linearGradient id="id0" gradientUnits="userSpaceOnUse" x1="148.77" y1="1813.47" x2="1700.9" y2="-27.06">
    <stop offset="0" stop-opacity="1" stop-color="#F27603"/>
    <stop offset="0.411765" stop-opacity="1" stop-color="#FF3F92"/>
    <stop offset="1" stop-opacity="1" stop-color="#1F99F0"/>
   </linearGradient>
   <linearGradient id="id1" gradientUnits="userSpaceOnUse" x1="609.72" y1="1645.95" x2="1274.07" y2="618.54">
    <stop offset="0" stop-opacity="1" stop-color="#F27603"/>
    <stop offset="0.411765" stop-opacity="1" stop-color="#FF3F92"/>
    <stop offset="1" stop-opacity="1" stop-color="#1F99F0"/>
   </linearGradient>
     <clipPath id="id2">
      <path d="M1502.17 769.67l111.03 35.22 -37.73 118.96 -111.03 -35.22 37.74 -118.96z"/>
     </clipPath>
    <linearGradient id="id3" gradientUnits="userSpaceOnUse" x1="430.54" y1="475.72" x2="538.99" y2="795.9">
     <stop offset="0" stop-opacity="1" stop-color="#9DFF1C"/>
     <stop offset="0.568627" stop-opacity="1" stop-color="#4AC412"/>
     <stop offset="1" stop-opacity="1" stop-color="#186115"/>
    </linearGradient>
    <clipPath id="id4">
     <path d="M644.17 761.75c8.73,-2.83 13.58,-12.36 10.75,-21.09l-77.2 -237.6c-1.47,-4.52 -4.08,-7.58 -8.32,-9.74l-69 -35.16c-4.24,-2.16 -8.25,-2.48 -12.78,-1l-173.03 56.22c-8.73,2.83 -13.59,12.36 -10.75,21.09l94.13 289.68c2.83,8.73 12.36,13.58 21.09,10.75l225.11 -73.15z"/>
    </clipPath>
      <clipPath id="id5">
       <path d="M310.11 553.79l230.78 -74.99 17.76 9.05 79.17 243.65 -244.19 79.35 -83.52 -257.05z"/>
      </clipPath>
      <clipPath id="id6">
       <path d="M644.17 761.75c8.73,-2.83 13.58,-12.36 10.75,-21.09l-77.2 -237.6c-1.47,-4.52 -4.08,-7.58 -8.32,-9.74l-69 -35.16c-4.24,-2.16 -8.25,-2.48 -12.78,-1l-173.03 56.22c-8.73,2.83 -13.59,12.36 -10.75,21.09l94.13 289.68c2.83,8.73 12.36,13.58 21.09,10.75l225.11 -73.15z"/>
      </clipPath>
      <linearGradient id="id7" gradientUnits="userSpaceOnUse" x1="488.1" y1="605.44" x2="457.93" y2="664.06">
       <stop offset="0" stop-opacity="1" stop-color="#F9FBF9"/>
       <stop offset="1" stop-opacity="1" stop-color="#A6DEA9"/>
      </linearGradient>
     <clipPath id="id8">
      <path d="M930.89 791.15l317.39 -27.86 34.52 393.19 -317.39 27.86 -34.52 -393.19z"/>
     </clipPath>
 </defs>
 <g id="Layer_x0020_1">
  <metadata id="CorelCorpID_0Corel-Layer"/>
  <rect fill="url(#id0)" x="44.57" y="48.14" width="1797.06" height="1797.06" rx="218.25" ry="218.25"/>
  <path fill="white" d="M544.52 402.28l16.76 -67.97c11.52,-46.72 59.37,-75.65 106.1,-64.13l182.15 44.9c22.89,5.64 41.84,19.59 54.04,39.76l41.32 68.34c0.05,0.08 0.09,0.16 0.14,0.23 29.61,-12.73 65.19,-8.94 91.7,12.82l49.44 40.59c14.54,-25.34 41.91,-42.42 73.14,-42.31l166.22 0.52c22.56,0.07 43.39,8.77 59.3,24.78l49.88 50.18c15.91,16 24.48,36.87 24.41,59.44l-0.4 131.19 48.67 22.41 72.74 33.48 46.15 150.03 -29.88 64.92 -63.41 137.78c14.56,34.03 22.05,71.61 20.76,110.7 -4.76,144.38 -125.65,260.74 -270.14,259.73l-137.06 -0.96 -190.96 170.08 -190.42 -172.37 -147.37 -1.03c-146.03,-1.03 -263,-122.69 -258.19,-268.65 2.94,-88.86 50.56,-169.83 123.96,-217.07 -0.88,-38.11 8.99,-75.48 28.23,-108.08l-67.38 21.89c-45.43,14.75 -94.45,-10.22 -109.22,-55.67l-94.13 -289.67c-14.78,-45.43 10.21,-94.48 55.65,-109.24l173.04 -56.22c22.17,-7.2 45.37,-5.37 66.14,5.21l8.62 4.39z"/>
  <path fill="url(#id1)" d="M1085.03 1454.28l-91.46 -0.16 0 -291.89 -79.43 0 0 291.74 -93.33 -0.17 65.66 59.43 65.66 59.43 66.45 -59.19 66.46 -59.19zm-374.43 -617.82c59.62,-53.48 134.48,-86.11 214.37,-93.54 92.77,-8.63 185.37,17.71 259.67,73.94 62.96,47.65 109.17,113.76 132,189.19 104.15,13.41 181.76,104.26 178.28,210.04 -3.78,114.54 -100.06,207.16 -214.67,206.43l-242.8 -1.71 0 -60.79 243.19 1.71c81.69,0.52 150.83,-66 153.52,-147.64 2.68,-81.27 -61.8,-148.43 -143.13,-148.94l-22.92 -0.14 -1.76 -9.25c-14.48,-76.09 -56.69,-143.7 -118.4,-190.41 -62.33,-47.17 -139.52,-69.13 -217.35,-61.88 -75.8,7.05 -145.74,41.08 -198.02,96.41l-5.58 5.9 -7.42 -3.32c-13.83,-6.19 -28.94,-8.65 -44.03,-7.25 -48.19,4.48 -83.98,47.61 -79.5,95.8 1.79,19.19 9.69,37.08 22.72,51.29l15.71 17.13 -23.15 2.01c-76.04,6.62 -137.12,70.65 -139.64,147.07 -2.68,81.26 61.81,148.42 143.13,148.94l255.46 1.79 0 60.79 -255.85 -1.79c-115.29,-0.74 -207.3,-96.52 -203.5,-211.73 2.71,-82.17 53.72,-155.52 128.18,-188.41 -1.72,-7.05 -2.91,-14.23 -3.59,-21.46 -3.67,-39.39 8.56,-78.29 33.8,-108.7 25.24,-30.41 61.21,-49.59 100.59,-53.26 13.59,-1.26 27.29,-0.66 40.69,1.8z"/>
  <g id="_1939308447792">
   <g>
    <polygon fill="#FAFAFA" points="1495.49,867.24 1529.43,793.5 1354.26,712.89 1203.62,1040.18 1447.69,1152.52 1564.39,898.95 "/>
    <path id="_1" fill="#DBDBDB" d="M1495.49 867.24l33.94 -73.73 -175.17 -80.62 -150.64 327.3 244.07 112.33 116.7 -253.57 -68.9 -31.71zm40.23 -70.83l-31.04 67.43 62.61 28.81 6.29 2.9 -2.9 6.3 -116.7 253.57 -2.9 6.29 -6.3 -2.9 -244.07 -112.33 -6.3 -2.9 2.9 -6.3 150.64 -327.3 2.89 -6.29 6.3 2.9 175.17 80.62 6.29 2.9 -2.9 6.3z"/>
   </g>
   <g id="_1939308463392">
    <g>
     <polygon fill="#DBDBDB" fill-rule="nonzero" points="1537.53,898.79 1337.91,806.91 1340.82,800.61 1540.43,892.48 "/>
    </g>
    <g id="_1939308463200">
     <g>
      <polygon fill="#DBDBDB" fill-rule="nonzero" points="1529.54,916.13 1526.64,922.44 1520.4,919.57 1514.16,916.7 1507.93,913.82 1501.69,910.95 1495.45,908.08 1489.21,905.21 1482.97,902.34 1476.74,899.47 1470.5,896.6 1464.26,893.73 1458.02,890.86 1451.78,887.98 1445.55,885.11 1439.31,882.24 1433.07,879.37 1426.83,876.5 1420.59,873.63 1414.36,870.76 1408.12,867.89 1401.88,865.02 1395.65,862.15 1389.41,859.28 1383.17,856.41 1376.93,853.53 1370.69,850.66 1364.46,847.79 1358.22,844.92 1351.98,842.05 1345.74,839.18 1339.5,836.31 1333.26,833.43 1327.03,830.56 1329.93,824.26 1336.17,827.13 1342.41,830 1348.65,832.87 1354.89,835.74 1361.12,838.61 1367.36,841.48 1373.6,844.35 1379.84,847.22 1386.07,850.1 1392.31,852.97 1398.55,855.84 1404.79,858.71 1411.03,861.58 1417.26,864.45 1423.5,867.32 1429.74,870.19 1435.98,873.07 1442.22,875.94 1448.45,878.81 1454.69,881.68 1460.93,884.55 1467.17,887.42 1473.41,890.29 1479.64,893.16 1485.88,896.04 1492.12,898.91 1498.35,901.78 1504.59,904.65 1510.83,907.52 1517.07,910.39 1523.31,913.26 "/>
     </g>
     <g>
      <polygon fill="#DBDBDB" fill-rule="nonzero" points="1518.66,939.78 1515.76,946.09 1509.52,943.22 1503.28,940.35 1497.04,937.48 1490.8,934.61 1484.57,931.74 1478.33,928.86 1472.09,925.99 1465.85,923.12 1459.61,920.25 1453.38,917.38 1447.14,914.51 1440.9,911.64 1434.67,908.77 1428.43,905.89 1422.19,903.02 1415.95,900.15 1409.71,897.28 1403.47,894.41 1397.24,891.54 1391,888.67 1384.76,885.8 1378.52,882.93 1372.28,880.06 1366.05,877.19 1359.81,874.31 1353.57,871.44 1347.33,868.57 1341.09,865.7 1334.85,862.83 1328.62,859.96 1322.38,857.09 1316.14,854.22 1319.05,847.91 1325.28,850.78 1331.52,853.65 1337.76,856.52 1344,859.39 1350.24,862.26 1356.48,865.14 1362.71,868.01 1368.95,870.88 1375.19,873.75 1381.43,876.62 1387.67,879.49 1393.91,882.36 1400.14,885.23 1406.38,888.11 1412.62,890.98 1418.85,893.85 1425.09,896.72 1431.33,899.59 1437.57,902.46 1443.81,905.33 1450.05,908.2 1456.28,911.07 1462.52,913.94 1468.76,916.81 1475,919.69 1481.24,922.56 1487.47,925.43 1493.71,928.3 1499.95,931.17 1506.19,934.04 1512.43,936.91 "/>
     </g>
     <g>
      <polygon fill="#DBDBDB" fill-rule="nonzero" points="1507.77,963.43 1504.87,969.74 1498.63,966.87 1492.39,964 1486.15,961.13 1479.92,958.26 1473.68,955.39 1467.44,952.52 1461.2,949.65 1454.96,946.77 1448.73,943.9 1442.49,941.03 1436.25,938.16 1430.02,935.29 1423.78,932.42 1417.54,929.55 1411.3,926.68 1405.06,923.8 1398.83,920.93 1392.59,918.06 1386.35,915.19 1380.11,912.32 1373.87,909.45 1367.64,906.58 1361.4,903.71 1355.16,900.83 1348.92,897.96 1342.69,895.09 1336.44,892.22 1330.21,889.35 1323.97,886.48 1317.73,883.61 1311.49,880.74 1305.26,877.87 1308.16,871.56 1314.4,874.43 1320.64,877.3 1326.87,880.17 1333.11,883.04 1339.35,885.91 1345.59,888.79 1351.83,891.66 1358.07,894.53 1364.3,897.4 1370.54,900.27 1376.78,903.14 1383.02,906.01 1389.26,908.89 1395.49,911.76 1401.73,914.63 1407.97,917.5 1414.21,920.37 1420.44,923.24 1426.68,926.11 1432.92,928.98 1439.16,931.85 1445.4,934.72 1451.63,937.59 1457.87,940.46 1464.11,943.34 1470.35,946.21 1476.58,949.08 1482.82,951.95 1489.06,954.82 1495.3,957.69 1501.54,960.56 "/>
     </g>
     <g>
      <polygon fill="#DBDBDB" fill-rule="nonzero" points="1496.89,987.09 1493.98,993.39 1487.75,990.52 1481.51,987.65 1475.27,984.78 1469.03,981.91 1462.8,979.04 1456.56,976.17 1450.32,973.3 1444.08,970.43 1437.84,967.55 1431.6,964.68 1425.37,961.81 1419.13,958.94 1412.89,956.07 1406.65,953.2 1400.41,950.33 1394.18,947.46 1387.94,944.58 1381.7,941.71 1375.46,938.84 1369.22,935.97 1362.98,933.1 1356.75,930.23 1350.51,927.36 1344.27,924.49 1338.04,921.61 1331.8,918.74 1325.56,915.87 1319.32,913 1313.08,910.13 1306.85,907.26 1300.61,904.39 1294.37,901.52 1297.28,895.21 1303.51,898.08 1309.75,900.95 1315.99,903.83 1322.23,906.7 1328.46,909.57 1334.7,912.44 1340.94,915.31 1347.18,918.18 1353.42,921.05 1359.65,923.92 1365.89,926.79 1372.13,929.67 1378.37,932.54 1384.61,935.41 1390.84,938.28 1397.08,941.15 1403.32,944.02 1409.56,946.89 1415.8,949.76 1422.03,952.63 1428.27,955.5 1434.51,958.37 1440.75,961.24 1446.98,964.12 1453.22,966.99 1459.46,969.86 1465.7,972.73 1471.94,975.6 1478.18,978.47 1484.41,981.34 1490.65,984.22 "/>
     </g>
     <g>
      <polygon fill="#DBDBDB" fill-rule="nonzero" points="1486,1010.74 1483.1,1017.04 1476.86,1014.17 1470.62,1011.3 1464.39,1008.43 1458.15,1005.56 1451.91,1002.69 1445.67,999.81 1439.43,996.94 1433.2,994.07 1426.96,991.2 1420.72,988.33 1414.48,985.46 1408.24,982.59 1402.01,979.72 1395.77,976.85 1389.53,973.98 1383.29,971.11 1377.06,968.23 1370.81,965.36 1364.58,962.49 1358.34,959.62 1352.1,956.75 1345.87,953.88 1339.63,951.01 1333.39,948.14 1327.15,945.26 1320.91,942.39 1314.67,939.52 1308.44,936.65 1302.2,933.78 1295.96,930.91 1289.72,928.04 1283.48,925.17 1286.39,918.86 1292.63,921.73 1298.87,924.6 1305.1,927.48 1311.34,930.35 1317.58,933.22 1323.82,936.09 1330.06,938.96 1336.3,941.83 1342.53,944.7 1348.77,947.57 1355.01,950.44 1361.25,953.31 1367.48,956.19 1373.72,959.06 1379.96,961.93 1386.2,964.8 1392.44,967.67 1398.67,970.54 1404.91,973.41 1411.15,976.28 1417.39,979.15 1423.63,982.02 1429.86,984.89 1436.1,987.77 1442.34,990.64 1448.58,993.51 1454.81,996.38 1461.05,999.25 1467.29,1002.12 1473.53,1004.99 1479.77,1007.87 "/>
     </g>
     <g>
      <polygon fill="#DBDBDB" fill-rule="nonzero" points="1475.12,1034.39 1472.21,1040.69 1465.98,1037.82 1459.74,1034.95 1453.5,1032.08 1447.26,1029.21 1441.02,1026.34 1434.79,1023.47 1428.55,1020.6 1422.31,1017.72 1416.07,1014.85 1409.83,1011.98 1403.6,1009.11 1397.36,1006.24 1391.12,1003.37 1384.88,1000.5 1378.65,997.63 1372.41,994.76 1366.17,991.89 1359.93,989.02 1353.69,986.15 1347.46,983.27 1341.22,980.4 1334.98,977.53 1328.74,974.66 1322.5,971.79 1316.26,968.92 1310.03,966.05 1303.79,963.17 1297.55,960.3 1291.31,957.43 1285.07,954.56 1278.83,951.69 1272.6,948.82 1275.5,942.51 1281.74,945.38 1287.98,948.26 1294.22,951.13 1300.46,954 1306.69,956.87 1312.93,959.74 1319.17,962.61 1325.41,965.48 1331.65,968.35 1337.89,971.22 1344.12,974.09 1350.36,976.96 1356.6,979.84 1362.83,982.71 1369.07,985.58 1375.31,988.45 1381.55,991.32 1387.79,994.19 1394.03,997.06 1400.26,999.93 1406.5,1002.81 1412.74,1005.68 1418.98,1008.55 1425.22,1011.42 1431.45,1014.29 1437.69,1017.16 1443.93,1020.03 1450.17,1022.9 1456.41,1025.77 1462.64,1028.65 1468.88,1031.52 "/>
     </g>
     <g>
      <polygon fill="#DBDBDB" fill-rule="nonzero" points="1464.23,1058.04 1461.33,1064.35 1455.09,1061.48 1448.85,1058.6 1442.61,1055.73 1436.37,1052.86 1430.14,1049.99 1423.9,1047.12 1417.66,1044.25 1411.42,1041.38 1405.19,1038.5 1398.95,1035.63 1392.71,1032.76 1386.47,1029.89 1380.23,1027.02 1374,1024.15 1367.76,1021.28 1361.52,1018.41 1355.28,1015.54 1349.04,1012.67 1342.81,1009.8 1336.57,1006.92 1330.33,1004.05 1324.09,1001.18 1317.85,998.31 1311.62,995.44 1305.38,992.57 1299.14,989.7 1292.9,986.82 1286.67,983.95 1280.43,981.08 1274.19,978.21 1267.95,975.34 1261.71,972.47 1264.62,966.16 1270.85,969.03 1277.09,971.91 1283.33,974.78 1289.57,977.65 1295.81,980.52 1302.05,983.39 1308.28,986.26 1314.52,989.13 1320.76,992 1327,994.87 1333.24,997.74 1339.47,1000.61 1345.71,1003.49 1351.95,1006.36 1358.19,1009.23 1364.43,1012.1 1370.66,1014.97 1376.9,1017.84 1383.14,1020.71 1389.38,1023.59 1395.61,1026.46 1401.85,1029.33 1408.09,1032.2 1414.33,1035.07 1420.57,1037.94 1426.8,1040.81 1433.04,1043.69 1439.28,1046.56 1445.52,1049.43 1451.76,1052.3 1458,1055.17 "/>
     </g>
     <g>
      <polygon fill="#DBDBDB" fill-rule="nonzero" points="1453.35,1081.69 1450.44,1088 1444.2,1085.13 1437.96,1082.26 1431.73,1079.39 1425.49,1076.52 1419.25,1073.65 1413.02,1070.77 1406.78,1067.9 1400.54,1065.03 1394.3,1062.16 1388.06,1059.29 1381.83,1056.42 1375.59,1053.55 1369.35,1050.67 1363.11,1047.8 1356.87,1044.93 1350.63,1042.06 1344.4,1039.19 1338.16,1036.32 1331.92,1033.45 1325.69,1030.57 1319.44,1027.7 1313.21,1024.83 1306.97,1021.96 1300.73,1019.09 1294.49,1016.22 1288.26,1013.35 1282.02,1010.48 1275.78,1007.61 1269.54,1004.74 1263.3,1001.87 1257.06,998.99 1250.83,996.12 1253.73,989.81 1259.97,992.69 1266.21,995.56 1272.44,998.43 1278.69,1001.3 1284.92,1004.17 1291.16,1007.04 1297.4,1009.91 1303.64,1012.78 1309.87,1015.66 1316.11,1018.53 1322.35,1021.4 1328.59,1024.27 1334.83,1027.14 1341.06,1030.01 1347.3,1032.88 1353.54,1035.76 1359.78,1038.63 1366.02,1041.5 1372.26,1044.37 1378.49,1047.24 1384.73,1050.11 1390.97,1052.98 1397.2,1055.85 1403.44,1058.72 1409.68,1061.59 1415.92,1064.46 1422.16,1067.34 1428.39,1070.21 1434.63,1073.08 1440.87,1075.95 1447.11,1078.82 "/>
     </g>
    </g>
    <g>
     <polygon fill="#DBDBDB" fill-rule="nonzero" points="1439.56,1111.65 1239.94,1019.78 1242.85,1013.47 1442.46,1105.34 "/>
    </g>
    <g>
     <polygon fill="#DBDBDB" fill-rule="nonzero" points="1472.78,840.32 1348.8,783.26 1351.7,776.95 1475.69,834.02 "/>
    </g>
    <g>
     <polygon fill="#DBDBDB" fill-rule="nonzero" points="1483.67,816.67 1359.69,759.61 1362.59,753.3 1486.57,810.37 "/>
    </g>
   </g>
   <g>
    <polygon fill="#DC0011" points="1274.89,858.02 1539.7,979.9 1481.89,1105.5 1217.08,983.62 "/>
    <path id="_1_0" fill="#C90414" d="M1280.7 845.44l264.81 121.88 12.58 5.79 -5.8 12.61 -57.81 125.6 -5.79 12.58 -12.6 -5.8 -264.81 -121.88 -12.58 -5.79 5.8 -12.6 57.81 -125.6 5.79 -12.58 12.61 5.8zm-5.81 12.59l264.81 121.88 -57.81 125.6 -264.81 -121.88 57.81 -125.6z"/>
   </g>
   <g>
    <g clip-path="url(#id2)">
     <image x="1464.44" y="769.67" width="148.76" height="154.17" xlink:href="cloud_Images\cloud_ImgID1.png"/>
    </g>
   </g>
   <g>
    <polygon fill="#EAEAEA" points="1561.8,894.55 1530.56,792.98 1496.71,864.59 "/>
    <path id="_1_1" fill="#DBDBDB" d="M1561.8 894.55l-31.24 -101.57 -33.85 71.61 65.09 29.96zm-24.63 -103.61l31.24 101.57 4.56 14.81 -14.07 -6.48 -65.09 -29.96 -6.36 -2.93 2.99 -6.33 33.85 -71.61 12.89 0.92z"/>
   </g>
   <path fill="white" fill-rule="nonzero" d="M1302.61 956.54l-11.94 26.16 -9.33 -4.26 31.01 -68c7.19,2.89 11.52,4.69 12.97,5.34 19.82,9.04 26.71,20.17 20.67,33.39 -6.99,15.3 -19.21,18.95 -36.72,10.98 -1.05,-0.48 -3.27,-1.69 -6.66,-3.61zm15.25 -33.47l-11.44 25.08c3.81,2.11 5.82,3.22 6.05,3.32 11.56,5.28 19.41,3.37 23.53,-5.68 3.78,-8.28 -0.51,-15.24 -12.85,-20.86 -1.24,-0.57 -3,-1.19 -5.29,-1.86z"/>
   <path id="_1_2" fill="white" fill-rule="nonzero" d="M1354.89 1012.25l-13.72 -6.26 31.02 -68c8.87,3.67 14.56,6.07 17,7.19 9.51,4.33 15.73,10.67 18.65,18.97 2.92,8.3 2.2,17.25 -2.19,26.85 -11.18,24.51 -28.09,31.6 -50.76,21.27zm22.8 -61.64l-23.15 50.78c1.94,1.26 4.44,2.59 7.5,3.99 6.52,2.96 12.73,2.87 18.68,-0.32 5.93,-3.17 10.87,-9.09 14.82,-17.74 7.33,-16.08 3.77,-27.42 -10.7,-34 -0.87,-0.4 -3.25,-1.29 -7.15,-2.7z"/>
   <polygon id="_2" fill="white" fill-rule="nonzero" points="1442.83,980.55 1434.23,999.43 1458.14,1010.33 1454.55,1018.2 1430.64,1007.3 1415.63,1040.22 1406.3,1035.96 1437.33,967.9 1479.39,987.08 1475.56,995.47 "/>
  </g>
  <g>
   <path fill="#F27603" d="M1370.6 824.22l-216.26 -0.67c-15.87,-0.05 -28.81,-13.07 -28.76,-28.94l0.85 -278.29c0.05,-15.87 13.07,-28.81 28.94,-28.76l166.23 0.51c7.94,0.03 14.77,2.88 20.37,8.52l49.87 50.18c5.6,5.64 8.41,12.48 8.39,20.43l-0.7 228.26c-0.05,15.87 -13.07,28.81 -28.94,28.76z"/>
   <path fill="#241301" d="M1370.64 810.66c8.39,0.03 15.31,-6.86 15.34,-15.25l0.7 -228.26c0.02,-4.35 -1.38,-7.75 -4.44,-10.83l-49.87 -50.18c-3.06,-3.09 -6.46,-4.5 -10.8,-4.52l-166.23 -0.51c-8.39,-0.02 -15.32,6.86 -15.34,15.25l-0.86 278.29c-0.02,8.39 6.86,15.31 15.25,15.34l216.26 0.67z"/>
   <path fill="#F27603" d="M1267.61 641.96l-40.78 -0.12 -10.7 29.8 -7.04 -0.02c-3.16,-0.01 -5.87,-1.45 -7.66,-4.06 -1.78,-2.61 -2.13,-5.66 -0.99,-8.61l38.65 -99.87 10.81 0.03c3.93,0.01 7.27,2.32 8.67,5.99l40.73 106.79 -14.06 -0.04c-3.95,-0.01 -7.31,-2.35 -8.69,-6.04l-8.93 -23.85zm-6.36 -17.44l-13.91 -38.16 -9.44 25.58c-1.09,2.94 -0.7,5.96 1.09,8.53 1.79,2.57 4.48,3.99 7.61,4l14.65 0.05z"/>
   <path fill="#F27603" d="M1315.28 576.66c-2.95,-0.01 -5.59,-1.07 -7.7,-3.13 -2.19,-2.13 -3.24,-4.83 -3.23,-7.87 0.01,-3.05 1.07,-5.78 3.26,-7.88 2.09,-2.08 4.76,-3.16 7.74,-3.15 3.02,0.01 5.69,1.08 7.85,3.18 2.2,2.14 3.26,4.87 3.26,7.92 -0.01,3.01 -1.13,5.65 -3.28,7.76 -2.17,2.12 -4.86,3.19 -7.89,3.18zm8.77 95.31l-9.1 -0.03c-5.13,-0.02 -9.3,-4.21 -9.28,-9.33l0.22 -72.9 9.1 0.03c5.13,0.02 9.3,4.21 9.28,9.34l-0.22 72.9z"/>
   <path fill="white" d="M1265.53 766.7l-17.92 -0.06 -4.7 13.1 -3.09 -0.01c-1.39,-0 -2.58,-0.63 -3.37,-1.78 -0.78,-1.15 -0.94,-2.49 -0.44,-3.78l16.98 -43.88 4.75 0.01c1.73,0.01 3.2,1.02 3.81,2.63l17.89 46.93 -6.18 -0.02c-1.73,-0 -3.21,-1.03 -3.82,-2.65l-3.92 -10.48zm-2.8 -7.67l-6.11 -16.76 -4.15 11.24c-0.48,1.29 -0.31,2.62 0.48,3.75 0.78,1.13 1.97,1.75 3.35,1.76l6.43 0.02z"/>
   <path fill="white" d="M1290.33 779.89l-4 -0.01c-2.26,-0.01 -4.09,-1.85 -4.08,-4.11l0.14 -45.2 4 0.01c2.26,0.01 4.09,1.85 4.08,4.1l-0.14 45.21z"/>
  </g>
  <g>
   <path fill="#1F99F0" fill-rule="nonzero" d="M944.12 941.53l-195.73 -160.67c-14.36,-11.79 -16.46,-33.19 -4.68,-47.54l206.76 -251.87c11.79,-14.36 33.18,-16.46 47.54,-4.68l150.44 123.5c7.19,5.91 11.28,13.55 12.19,22.81l8.11 82.45c0.91,9.26 -1.61,17.55 -7.51,24.74l-169.59 206.58c-11.79,14.36 -33.18,16.46 -47.54,4.68z"/>
   <path fill="#02192B" d="M954.19 929.26c7.59,6.23 18.98,5.11 25.21,-2.48l169.58 -206.58c3.23,-3.93 4.48,-8.05 3.98,-13.12l-8.11 -82.45c-0.5,-5.06 -2.52,-8.86 -6.46,-12.09l-150.45 -123.5c-7.59,-6.23 -18.98,-5.11 -25.2,2.48l-206.76 251.86c-6.23,7.59 -5.11,18.98 2.48,25.21l195.72 160.67z"/>
   <path fill="#1F99F0" fill-rule="nonzero" d="M941.54 651.57l-25.98 31.64 -23.03 -18.91 83.87 -102.17 36.06 29.61c25.76,21.14 26.8,46.09 8.98,67.81 -8.43,10.26 -18.93,15.53 -31.53,15.8 -12.58,0.26 -25.05,-4.65 -37.4,-14.79l-10.97 -9zm35.23 70.26l18.95 -23.08c-4.61,22.49 39.52,53.74 26.88,29.45 -1.12,-2.16 -2.44,-4.42 -4.02,-6.7 -1.55,-2.31 -2.98,-4.6 -4.28,-6.91 -2.11,-3.67 -3.78,-7.15 -5.05,-10.39 -1.24,-3.26 -1.93,-6.41 -2.07,-9.5 -0.13,-3.04 0.33,-6.07 1.4,-9.06 1.08,-2.99 2.88,-6.08 5.48,-9.25 3.55,-4.32 7.57,-7.27 12,-8.85 4.43,-1.57 9.05,-2.05 13.81,-1.45 4.77,0.59 9.57,2.09 14.38,4.48 4.8,2.39 9.4,5.39 13.78,8.99 3.43,2.81 6.66,5.9 9.74,9.33 3.1,3.41 5.94,7.04 8.54,10.85l-15.11 18.4c-1.58,-4.27 -3.72,-8.22 -6.45,-11.93 -2.73,-3.7 -5.74,-6.91 -9.07,-9.64 -1.57,-1.29 -3.14,-2.36 -4.74,-3.2 -1.6,-0.88 -3.17,-1.48 -4.67,-1.81 -1.48,-0.35 -2.85,-0.36 -4.14,0 -1.3,0.32 -2.36,1.04 -3.23,2.09 -1.14,1.39 -1.7,2.96 -1.62,4.7 0.1,1.76 0.54,3.59 1.42,5.52 0.85,1.95 1.95,3.93 3.26,5.95 1.29,2.05 2.58,4.1 3.87,6.15 2.26,3.7 4.12,7.26 5.62,10.69 1.47,3.41 2.44,6.74 2.81,10.02 0.39,3.25 0.11,6.47 -0.85,9.64 -0.97,3.17 -2.78,6.38 -5.46,9.65 -3.76,4.58 -7.76,8.44 -12.62,9.29 -31.07,5.39 -53.08,-27.28 -58.59,-43.42zm6.5 -121.11l-24.49 29.83 9.05 7.43c12.26,10.06 21.94,10.72 30.75,-0.01 8.63,-10.51 6,-19.76 -6.26,-29.82l-9.05 -7.43z"/>
   <path fill="white" d="M856.6 774.19l-13.38 16.31 -6.71 -5.51 36 -43.86 0.64 0.48c2.54,1.89 5.23,3.81 7.67,5.81 9.01,7.4 15.8,17.24 7.16,27.76 -8.5,10.35 -18.13,10.26 -28.21,1.98 -1.07,-0.88 -2.15,-1.96 -3.17,-2.98zm10.78 32.17l7.91 -4.65 0.25 1.12c0.38,1.71 1.14,3.35 2.04,4.85 0.85,1.42 1.91,2.85 3.2,3.91 1.74,1.43 3.74,2.31 6.02,2.12 2.16,-0.18 3.87,-1.19 5.23,-2.85 1.08,-1.31 1.76,-2.8 2.04,-4.48 0.38,-2.26 -1.1,-5.94 -2,-7.96l-1.89 -4.22c-1.37,-3.07 -2.33,-6.57 -1.76,-9.95 0.52,-3.17 2.07,-5.98 4.08,-8.44 2.65,-3.23 6.03,-5.23 10.21,-5.65 4.24,-0.42 7.97,0.98 11.24,3.67 3.03,2.48 6.92,6.25 7.54,10.32l0.08 0.53 -7.23 4.73 -0.26 -1.19c-0.3,-1.38 -1.13,-2.9 -1.85,-4.1 -0.88,-1.46 -1.94,-2.87 -3.27,-3.95 -1.48,-1.21 -3.16,-1.94 -5.09,-1.69 -1.91,0.24 -3.4,1.27 -4.61,2.74 -0.77,0.93 -1.37,1.98 -1.71,3.14 -0.31,1.04 -0.4,2.09 -0.23,3.16 0.27,1.72 1.31,4.13 2,5.73l1.87 4.33c1.35,3.13 2.29,6.65 1.71,10.07 -0.57,3.36 -2.39,6.41 -4.53,9.01 -2.81,3.42 -6.46,5.23 -10.87,5.52 -4.88,0.32 -9.19,-1.66 -12.91,-4.71 -3.39,-2.78 -5.94,-6.23 -7.07,-10.5l-0.17 -0.61zm35.14 32.81l-8.61 -7.06 36.01 -43.86 0.64 0.48c3.33,2.54 6.77,5.08 10.01,7.73 5.3,4.35 8.69,9.86 8.97,16.8 0.29,7.17 -2.74,13.52 -7.21,18.96 -11.44,13.93 -24.85,19.24 -39.81,6.95zm-28.56 -86.12l-11.98 14.59c0.91,0.9 1.85,1.87 2.78,2.67 5.51,4.52 10.96,5.8 15.86,-0.17 4.85,-5.91 0.82,-11.29 -4.2,-15.41 -0.74,-0.61 -1.61,-1.17 -2.46,-1.68zm57.38 47.15l-25.19 30.68c1.13,1.19 2.39,2.3 3.66,3.34 3.54,2.9 7.47,3.77 11.88,2.56 5.34,-1.47 9.81,-5.61 13.25,-9.79 6.83,-8.32 9.04,-16.79 -0.05,-24.26 -1.06,-0.87 -2.37,-1.73 -3.55,-2.53z"/>
  </g>
  <g>
   <path fill="#FF3F92" d="M796.65 748.21l-236.97 -58.41c-17.39,-4.29 -28.11,-22.02 -23.82,-39.41l75.17 -304.94c4.28,-17.39 22.02,-28.11 39.4,-23.82l182.15 44.9c8.7,2.15 15.43,7.1 20.07,14.77l41.31 68.33c4.64,7.67 5.9,15.93 3.75,24.63l-61.66 250.12c-4.29,17.39 -22.02,28.11 -39.41,23.82z"/>
   <path fill="#26000F" d="M800.31 733.36c9.19,2.26 18.63,-3.44 20.89,-12.63l61.66 -250.12c1.17,-4.76 0.55,-8.86 -1.99,-13.06l-41.31 -68.33c-2.54,-4.2 -5.88,-6.66 -10.64,-7.83l-182.15 -44.9c-9.19,-2.26 -18.63,3.44 -20.89,12.63l-75.17 304.94c-2.27,9.19 3.44,18.63 12.63,20.89l236.98 58.42z"/>
   <path fill="#FF3F92" d="M737.27 500.56c3.77,-15.28 19.21,-24.62 34.5,-20.85 0.85,0.21 1.69,0.46 2.51,0.74l-13.59 55.12c-0.85,-0.13 -1.71,-0.3 -2.57,-0.51 -15.28,-3.77 -24.62,-19.21 -20.85,-34.49zm-75.02 35.98l30.65 -124.33 22.23 5.48 -30.65 124.33 -22.23 -5.48zm117.87 -79.83l6.24 -25.29 22.23 5.48 -7.79 31.59 -2.54 10.31 -19.64 79.68c-8.34,2.24 -17.35,2.46 -26.34,0.25 -28.36,-6.99 -45.69,-35.65 -38.7,-64.02 6.99,-28.36 35.65,-45.69 64.02,-38.7 0.85,0.21 1.69,0.44 2.52,0.69z"/>
   <path fill="white" d="M697.53 649.32c1.57,-6.36 8,-10.25 14.37,-8.69 0.36,0.09 0.7,0.19 1.05,0.31l-5.66 22.96c-0.35,-0.06 -0.71,-0.13 -1.07,-0.21 -6.37,-1.57 -10.26,-8 -8.69,-14.37zm-31.25 14.99l13.21 -53.6 9.26 2.28 -13.21 53.6 -9.26 -2.28zm49.1 -33.26l2.6 -10.54 9.26 2.28 -3.24 13.16 -1.06 4.3 -8.18 33.19c-3.48,0.94 -7.23,1.03 -10.97,0.11 -11.81,-2.91 -19.03,-14.85 -16.12,-26.67 2.91,-11.81 14.85,-19.03 26.67,-16.12 0.35,0.09 0.7,0.19 1.05,0.29z"/>
  </g>
  <g>
   <path fill="#87EB0E" d="M648.75 775.86l-225.11 73.15c-16.52,5.37 -34.42,-3.76 -39.79,-20.27l-94.13 -289.68c-5.37,-16.52 3.76,-34.42 20.27,-39.79l173.04 -56.22c8.27,-2.69 16.34,-2.05 24.09,1.9l69 35.15c7.75,3.95 13.01,10.11 15.69,18.38l77.2 237.6c5.37,16.52 -3.76,34.42 -20.27,39.79z"/>
   <path fill="url(#id3)" d="M644.17 761.75c8.73,-2.83 13.58,-12.36 10.75,-21.09l-77.2 -237.6c-1.47,-4.52 -4.08,-7.58 -8.32,-9.74l-69 -35.16c-4.24,-2.16 -8.25,-2.48 -12.78,-1l-173.03 56.22c-8.73,2.83 -13.59,12.36 -10.75,21.09l94.13 289.68c2.83,8.73 12.36,13.58 21.09,10.75l225.11 -73.15z"/>
   <g clip-path="url(#id4)">
    <g>
     <g>
     </g>
     <g clip-path="url(#id5)">
      <image x="297.35" y="474.44" width="340.47" height="340.54" xlink:href="cloud_Images\cloud_ImgID2.png"/>
     </g>
     <g clip-path="url(#id6)">
     </g>
     <path fill="url(#id7)" d="M387.02 559.79l-24.66 48.43c-1.72,3.37 -0.37,7.51 2.99,9.22l192 97.83 27.7 -9 12.21 -23.94 -9.01 -27.7 -192.01 -97.83c-3.36,-1.72 -7.51,-0.37 -9.23,2.99zm214.13 125.92c5.31,3.28 6.89,10.46 4.06,16.02 -2.82,5.52 -9.37,7.98 -15.11,5.69l11.05 -21.71z"/>
    </g>
   </g>
   <path fill="none" d="M644.17 761.75c8.73,-2.83 13.58,-12.36 10.75,-21.09l-77.2 -237.6c-1.47,-4.52 -4.08,-7.58 -8.32,-9.74l-69 -35.16c-4.24,-2.16 -8.25,-2.48 -12.78,-1l-173.03 56.22c-8.73,2.83 -13.59,12.36 -10.75,21.09l94.13 289.68c2.83,8.73 12.36,13.58 21.09,10.75l225.11 -73.15z"/>
  </g>
  <g>
   <g>
    <g clip-path="url(#id8)">
     <image x="930.89" y="763.28" width="351.91" height="421.05" xlink:href="cloud_Images\cloud_ImgID3.png"/>
    </g>
   </g>
   <polygon fill="white" stroke="#E6E6E6" stroke-width="6.94" stroke-linecap="round" stroke-linejoin="round" stroke-miterlimit="2.61313" points="1148.88,881.73 1142.58,810 971.36,825.02 999.41,1144.51 1242.37,1123.18 1220.62,875.44 "/>
   <polygon fill="#E6E6E6" points="1220.62,875.44 1142.58,810 1148.88,881.73 "/>
   <g>
    <g>
     <path fill="#CDAEF9" d="M1117.41 1021.85l-19.61 -18.13 -12.78 -11.81c-4.02,-3.72 -10.03,-3.17 -13.36,1.2l-26.65 35.09 36.63 -3.22 35.76 -3.14z"/>
     <path fill="#9B5DF4" d="M1117.41 1021.85l59.8 -5.25 -45.09 -41.68c-4.02,-3.72 -10.03,-3.17 -13.36,1.21l-20.96 27.59 -16.15 21.27 35.76 -3.14z"/>
     <circle fill="#9B5DF4" transform="matrix(0.170634 -0.0149793 0.0149793 0.170634 1073.85 959.961)" r="67.34"/>
    </g>
    <path fill="#9B5DF4" d="M1030.71 924.98l142.59 -12.52 14.63 166.61 -142.59 12.52 -14.63 -166.61zm161.3 157.51l-150.1 13.18 -15.28 -174.11 150.1 -13.17 15.28 174.11z"/>
    <rect fill="#9B5DF4" transform="matrix(0.170634 -0.0149793 0.00415615 0.0473439 1037.67 1047.36)" width="879.65" height="1020.39"/>
    <path fill="#F0E6FE" fill-rule="nonzero" d="M1085.83 1075.36l3.11 -0.27c0.42,1.56 1.44,2.27 3.05,2.13 1.6,-0.14 2.69,-0.58 3.28,-1.32 0.59,-0.74 0.74,-2.67 0.47,-5.8l-1.44 -16.48 3.56 -0.31 1.44 16.35c0.31,3.56 -0.04,6.19 -1.05,7.87 -1.02,1.69 -2.99,2.66 -5.94,2.92 -1.7,0.15 -3.14,-0.24 -4.31,-1.16 -1.18,-0.92 -1.89,-2.23 -2.15,-3.93z"/>
    <path id="_1_3" fill="#F0E6FE" fill-rule="nonzero" d="M1108.15 1068.57l0.88 10.04 -3.55 0.31 -2.3 -26.09c2.69,-0.35 4.31,-0.56 4.86,-0.61 7.57,-0.67 11.58,1.54 12.03,6.61 0.52,5.88 -2.57,9.1 -9.27,9.69 -0.41,0.04 -1.29,0.06 -2.65,0.05zm-1.13 -12.83l0.84 9.61c1.52,-0.02 2.32,-0.02 2.4,-0.03 4.42,-0.39 6.48,-2.32 6.17,-5.8 -0.28,-3.17 -2.77,-4.55 -7.49,-4.14 -0.48,0.04 -1.12,0.16 -1.93,0.35z"/>
    <path id="_2_4" fill="#F0E6FE" fill-rule="nonzero" d="M1141.8 1051.24l-1.22 3.07c-1.91,-1.17 -3.73,-1.67 -5.46,-1.53 -2.73,0.24 -4.81,1.39 -6.22,3.45 -1.41,2.07 -1.98,4.68 -1.7,7.84 0.26,3.02 1.26,5.37 2.97,7.08 1.72,1.7 3.91,2.43 6.59,2.2 1.91,-0.17 3.39,-0.87 4.48,-2.11l-0.54 -6.1 -3.63 0.32 -0.26 -3.04 7.18 -0.63 1 11.38c-0.88,0.89 -2.15,1.65 -3.8,2.3 -1.66,0.64 -3.29,1.03 -4.89,1.17 -3.61,0.32 -6.56,-0.65 -8.86,-2.91 -2.3,-2.26 -3.63,-5.42 -3.98,-9.47 -0.36,-4.04 0.5,-7.42 2.57,-10.13 2.06,-2.72 5.04,-4.25 8.93,-4.58 2.72,-0.24 5.01,0.32 6.85,1.68z"/>
   </g>
  </g>
 </g>
</svg>
