<?xml version="1.0" encoding="UTF-8"?>
<!DOCTYPE svg PUBLIC "-//W3C//DTD SVG 1.1//EN" "http://www.w3.org/Graphics/SVG/1.1/DTD/svg11.dtd">
<!-- Creator: CorelDRAW 2021 (64-Bit) -->
<svg xmlns="http://www.w3.org/2000/svg" xml:space="preserve" width="1.88976in" height="1.88976in" version="1.1" shape-rendering="geometricPrecision" text-rendering="geometricPrecision" image-rendering="optimizeQuality" fill-rule="evenodd" clip-rule="evenodd"
viewBox="0 0 1889.76 1889.76"
 xmlns:xlink="http://www.w3.org/1999/xlink"
 xmlns:xodm="http://www.corel.com/coreldraw/odm/2003">
 <defs>
    <linearGradient id="id0" gradientUnits="userSpaceOnUse" x1="485.11" y1="1029.09" x2="501.86" y2="1746.24">
     <stop offset="0" stop-opacity="1" stop-color="#9DFF1C"/>
     <stop offset="0.239216" stop-opacity="1" stop-color="#4AC412"/>
     <stop offset="0.54902" stop-opacity="1" stop-color="#33A926"/>
     <stop offset="0.6" stop-opacity="1" stop-color="#186115"/>
     <stop offset="0.690196" stop-opacity="1" stop-color="#05A333"/>
     <stop offset="0.839216" stop-opacity="1" stop-color="#11B42C"/>
     <stop offset="1" stop-opacity="1" stop-color="#9DFF1C"/>
    </linearGradient>
    <clipPath id="id1">
     <path d="M357.57 1029.09l482.93 0 0 484.46c0,127.98 -104.71,232.69 -232.69,232.69l-242 0c-128.96,0 -234.47,-105.52 -234.47,-234.47l0 -256.46c0,-124.42 101.8,-226.22 226.23,-226.22z"/>
    </clipPath>
      <clipPath id="id2">
       <path d="M188.47 1105.46l530.33 0 0 566.73 -523.58 0c-17.59,-18.69 -32.17,-40.24 -42.94,-63.85l0 -447.78c9.37,-20.13 21.6,-38.67 36.19,-55.1z"/>
      </clipPath>
      <clipPath id="id3">
       <path d="M357.57 1029.09l482.93 0 0 484.46c0,127.98 -104.71,232.69 -232.69,232.69l-242 0c-128.96,0 -234.47,-105.52 -234.47,-234.47l0 -256.46c0,-124.42 101.8,-226.22 226.23,-226.22z"/>
      </clipPath>
      <linearGradient id="id4" gradientUnits="userSpaceOnUse" x1="501.9" y1="1323.8" x2="403.75" y2="1421.15">
       <stop offset="0" stop-opacity="1" stop-color="#F9FBF9"/>
       <stop offset="1" stop-opacity="1" stop-color="#A6DEA9"/>
      </linearGradient>
 </defs>
 <g id="Layer_x0020_1">
  <metadata id="CorelCorpID_0Corel-Layer"/>
  <g id="_2498702069904">
   <rect fill="#02192B" x="117.84" y="103.95" width="795.43" height="795.43" rx="139.47" ry="139.47"/>
   <path fill="#1F99F0" fill-rule="nonzero" stroke="black" stroke-width="3" stroke-linecap="round" stroke-linejoin="round" stroke-miterlimit="2.61313" d="M355.82 553.44l0 117.06 -85.2 0 0 -377.95 133.42 0c95.28,0 142.87,53.25 142.87,133.59 0,37.96 -13.65,68.67 -41.03,92.13 -27.32,23.41 -63.79,35.18 -109.49,35.18l-40.57 0zm205.35 91.37l0 -85.39c30.61,58.09 184.85,47.06 112.84,16.31 -6.39,-2.73 -13.43,-5.33 -21.05,-7.52 -7.61,-2.29 -14.94,-4.76 -21.99,-7.52 -11.33,-4.28 -21.33,-8.95 -30,-13.8 -8.66,-4.95 -15.9,-10.67 -21.8,-17.24 -5.81,-6.48 -10.28,-14 -13.33,-22.57 -3.05,-8.57 -4.67,-18.67 -4.67,-30.38 0,-16 3.53,-29.8 10.48,-41.32 6.95,-11.52 16.28,-20.95 27.9,-28.28 11.62,-7.33 24.95,-12.76 39.9,-16.19 14.95,-3.43 30.56,-5.14 46.76,-5.14 12.67,0 25.42,0.95 38.46,2.95 13.05,1.91 25.91,4.77 38.57,8.48l0 68.08c-11.23,-6.57 -23.14,-11.43 -35.9,-14.66 -12.76,-3.24 -25.23,-4.85 -37.52,-4.85 -5.81,0 -11.24,0.47 -16.28,1.52 -5.14,0.95 -9.71,2.47 -13.62,4.47 -3.9,1.91 -6.95,4.39 -9.14,7.52 -2.29,3.05 -3.33,6.57 -3.33,10.48 0,5.14 1.62,9.62 4.96,13.33 3.42,3.71 7.71,6.95 13.14,9.62 5.43,2.76 11.43,5.15 17.99,7.24 6.57,2.19 13.14,4.38 19.71,6.57 11.71,4.09 22.28,8.57 31.8,13.43 9.43,4.86 17.62,10.48 24.38,17.05 6.76,6.48 12,14.09 15.62,22.85 3.61,8.76 5.43,19.14 5.43,31.23 0,16.95 -1.83,32.74 -11.04,43.43 -58.91,68.28 -166.79,36.01 -208.26,10.32zm-205.35 -279.45l0 110.36 33.47 0c45.34,0 67.94,-16.13 67.94,-55.8 0,-38.87 -22.61,-54.56 -67.94,-54.56l-33.47 0z"/>
   <rect fill="#F27603" x="1002.56" y="103.95" width="795.43" height="795.43" rx="139.47" ry="139.47"/>
   <rect fill="#241301" x="1060.3" y="161.69" width="679.95" height="679.95" rx="62.32" ry="62.32"/>
   <path fill="#F27603" d="M1392.73 596.71l-132.1 0 -34.38 96.65 -22.81 0c-10.24,0 -19.05,-4.63 -24.85,-13.07 -5.8,-8.44 -6.98,-18.31 -3.31,-27.87l124.21 -323.89 35 0c12.72,0 23.57,7.45 28.14,19.32l132.99 345.52 -45.54 0c-12.79,0 -23.69,-7.54 -28.21,-19.5l-29.14 -77.15zm-20.79 -56.44l-45.44 -123.46 -30.31 82.96c-3.48,9.54 -2.21,19.3 3.61,27.63 5.82,8.32 14.56,12.87 24.71,12.87l47.44 0z"/>
   <path fill="#F27603" d="M1546.47 384.72c-9.55,0 -18.11,-3.41 -24.97,-10.05 -7.12,-6.88 -10.54,-15.62 -10.54,-25.47 0,-9.87 3.4,-18.72 10.48,-25.57 6.76,-6.76 15.4,-10.28 25.04,-10.28 9.77,0 18.46,3.43 25.48,10.23 7.13,6.9 10.62,15.75 10.62,25.62 0,9.74 -3.62,18.33 -10.56,25.16 -7.01,6.89 -15.72,10.36 -25.54,10.36zm29.37 308.64l-29.49 0c-16.61,0 -30.15,-13.54 -30.15,-30.15l0 -236.15 29.48 0c16.61,0 30.15,13.54 30.15,30.15l0 236.15z"/>
   <rect fill="#FF3F92" x="1002.56" y="985.96" width="795.43" height="795.43" rx="139.47" ry="139.47"/>
   <rect fill="#26000F" x="1060.3" y="1043.7" width="679.95" height="679.95" rx="62.32" ry="62.32"/>
   <path fill="#FF3F92" d="M1426.02 1398.21c0,-45.17 36.62,-81.8 81.8,-81.8 2.53,0 5.03,0.11 7.5,0.34l0 162.91c-2.47,0.22 -4.97,0.34 -7.5,0.34 -45.17,0 -81.8,-36.62 -81.8,-81.79zm89.3 -151.62l0 -74.76 65.72 0 0 93.37 0 30.5 0 235.52c-21.71,11.98 -46.67,18.8 -73.22,18.8 -83.83,0 -151.8,-67.97 -151.8,-151.8 0,-83.83 67.97,-151.8 151.8,-151.8 2.51,0 5.01,0.07 7.5,0.19z"/>
   <polygon fill="#FF3F92" fill-rule="nonzero" points="1241.7,1550.01 1241.7,1182.51 1307.41,1182.51 1307.41,1550.01 "/>
   <path fill="#BDF5A1" d="M357.57 985.96l526.07 0 0 527.6c0,151.79 -124.04,275.82 -275.83,275.82l-242 0c-152.77,0 -277.61,-124.83 -277.61,-277.61l0 -256.46c0,-148.23 121.13,-269.36 269.36,-269.36z"/>
   <path fill="url(#id0)" d="M357.57 1029.09l482.93 0 0 484.46c0,127.98 -104.71,232.69 -232.69,232.69l-242 0c-128.96,0 -234.47,-105.52 -234.47,-234.47l0 -256.46c0,-124.42 101.8,-226.22 226.23,-226.22z"/>
   <g clip-path="url(#id1)">
    <g>
     <g>
     </g>
     <g clip-path="url(#id2)">
      <image x="152.28" y="1105.46" width="566.52" height="566.73" xlink:href="design tools_Images\design tools_ImgID1.png"/>
     </g>
     <g clip-path="url(#id3)">
     </g>
     <path fill="url(#id4)" d="M329.9 1167.28l-80.57 80.57c-5.6,5.6 -5.6,14.74 0,20.34l319.51 319.51 61.07 0 39.85 -39.85 0 -61.07 -319.51 -319.5c-5.6,-5.6 -14.74,-5.6 -20.34,0zm345.43 389.87c8.48,9.97 6.95,25.32 -2.3,34.57 -9.18,9.18 -23.84,9.85 -33.81,1.55l36.12 -36.12z"/>
    </g>
   </g>
   <path fill="none" d="M357.57 1029.09l482.93 0 0 484.46c0,127.98 -104.71,232.69 -232.69,232.69l-242 0c-128.96,0 -234.47,-105.52 -234.47,-234.47l0 -256.46c0,-124.42 101.8,-226.22 226.23,-226.22z"/>
  </g>
  <rect fill="none" x="32.24" y="35.52" width="1822.28" height="1822.28"/>
 </g>
</svg>
