<?xml version="1.0" encoding="UTF-8"?>
<!DOCTYPE svg PUBLIC "-//W3C//DTD SVG 1.1//EN" "http://www.w3.org/Graphics/SVG/1.1/DTD/svg11.dtd">
<!-- Creator: CorelDRAW 2021 (64-Bit) -->
<svg xmlns="http://www.w3.org/2000/svg" xml:space="preserve" width="1.99999in" height="2in" version="1.1" shape-rendering="geometricPrecision" text-rendering="geometricPrecision" image-rendering="optimizeQuality" fill-rule="evenodd" clip-rule="evenodd"
viewBox="0 0 1999.99 2000"
 xmlns:xlink="http://www.w3.org/1999/xlink"
 xmlns:xodm="http://www.corel.com/coreldraw/odm/2003">
 <g id="Layer_x0020_1">
  <metadata id="CorelCorpID_0Corel-Layer"/>
  <g id="_2498667840720">
   <rect fill="#F27603" x="82.4" y="82.41" width="1835.19" height="1835.19" rx="321.78" ry="321.78"/>
   <rect fill="#241301" x="215.62" y="215.62" width="1568.76" height="1568.76" rx="155.79" ry="155.79"/>
   <path fill="#F27603" d="M982.58 1219.29l-304.78 0 -79.31 222.97 -52.64 0c-23.62,0 -43.94,-10.69 -57.32,-30.16 -13.39,-19.46 -16.09,-42.25 -7.64,-64.31l286.57 -747.26 80.76 0c29.35,0 54.38,17.18 64.92,44.58l306.83 797.16 -105.06 0c-29.51,0 -54.67,-17.38 -65.09,-44.98l-67.23 -177.99zm-47.96 -130.22l-104.85 -284.84 -69.94 191.41c-8.04,22 -5.1,44.54 8.33,63.74 13.44,19.19 33.58,29.7 57.01,29.7l109.45 0z"/>
   <path fill="#F27603" d="M1337.29 730.18c-22.04,0 -41.78,-7.87 -57.62,-23.19 -16.43,-15.88 -24.32,-36.04 -24.32,-58.76 0,-22.78 7.84,-43.2 24.18,-58.99 15.58,-15.61 35.52,-23.73 57.76,-23.73 22.54,0 42.59,7.92 58.79,23.6 16.45,15.91 24.5,36.33 24.5,59.12 0,22.48 -8.35,42.29 -24.36,58.05 -16.18,15.9 -36.28,23.91 -58.93,23.91zm67.77 712.09l-68.03 0c-38.32,0 -69.57,-31.25 -69.57,-69.57l0 -544.84 68.03 0c38.32,0 69.57,31.24 69.57,69.57l0 544.84z"/>
  </g>
 </g>
</svg>
