<?xml version="1.0" encoding="UTF-8"?>
<!DOCTYPE svg PUBLIC "-//W3C//DTD SVG 1.1//EN" "http://www.w3.org/Graphics/SVG/1.1/DTD/svg11.dtd">
<!-- Creator: CorelDRAW 2021 (64-Bit) -->
<svg xmlns="http://www.w3.org/2000/svg" xml:space="preserve" width="1.99999in" height="2in" version="1.1" shape-rendering="geometricPrecision" text-rendering="geometricPrecision" image-rendering="optimizeQuality" fill-rule="evenodd" clip-rule="evenodd"
viewBox="0 0 1999.99 2000"
 xmlns:xlink="http://www.w3.org/1999/xlink"
 xmlns:xodm="http://www.corel.com/coreldraw/odm/2003">
 <g id="Layer_x0020_1">
  <metadata id="CorelCorpID_0Corel-Layer"/>
  <rect fill="#FF3F92" x="82.4" y="82.41" width="1835.19" height="1835.19" rx="321.78" ry="321.78"/>
  <rect fill="#26000F" x="215.62" y="215.62" width="1568.76" height="1568.76" rx="175.35" ry="175.35"/>
  <path fill="#FF3F92" d="M1059.38 1033.53c0,-104.22 84.49,-188.71 188.71,-188.71 5.84,0 11.6,0.26 17.31,0.79l0 375.85c-5.7,0.52 -11.47,0.78 -17.31,0.78 -104.22,0 -188.71,-84.49 -188.71,-188.71zm206.02 -349.8l0 -172.49 151.62 0 0 215.42 0 70.37 0 543.37c-50.09,27.64 -107.67,43.36 -168.93,43.36 -193.42,0 -350.23,-156.81 -350.23,-350.23 0,-193.42 156.81,-350.23 350.23,-350.23 5.8,0 11.57,0.15 17.31,0.43z"/>
  <polygon fill="#FF3F92" fill-rule="nonzero" points="634.12,1383.76 634.12,535.87 785.74,535.87 785.74,1383.76 "/>
 </g>
</svg>
