<?xml version="1.0" encoding="UTF-8"?>
<!DOCTYPE svg PUBLIC "-//W3C//DTD SVG 1.1//EN" "http://www.w3.org/Graphics/SVG/1.1/DTD/svg11.dtd">
<!-- Creator: CorelDRAW 2021 (64-Bit) -->
<svg xmlns="http://www.w3.org/2000/svg" xml:space="preserve" width="1.99999in" height="2in" version="1.1" shape-rendering="geometricPrecision" text-rendering="geometricPrecision" image-rendering="optimizeQuality" fill-rule="evenodd" clip-rule="evenodd"
viewBox="0 0 1999.99 2000"
 xmlns:xlink="http://www.w3.org/1999/xlink"
 xmlns:xodm="http://www.corel.com/coreldraw/odm/2003">
 <g id="Layer_x0020_1">
  <metadata id="CorelCorpID_0Corel-Layer"/>
  <g id="_2498664110176">
   <rect fill="#02192B" x="82.4" y="82.41" width="1835.19" height="1835.19" rx="321.78" ry="321.78"/>
   <path fill="#1F99F0" fill-rule="nonzero" stroke="black" stroke-width="3" stroke-linecap="round" stroke-linejoin="round" stroke-miterlimit="2.61313" d="M631.44 1119.44l0 270.07 -196.56 0 0 -872 307.82 0c219.81,0 329.62,122.85 329.62,308.22 0,87.59 -31.5,158.43 -94.65,212.55 -63.04,54.01 -147.18,81.16 -252.61,81.16l-93.62 0zm473.78 210.81l0 -197c70.63,134.01 426.47,108.58 260.34,37.63 -14.74,-6.3 -30.97,-12.31 -48.55,-17.36 -17.57,-5.28 -34.49,-10.98 -50.75,-17.35 -26.15,-9.89 -49.21,-20.66 -69.21,-31.85 -19.99,-11.43 -36.68,-24.61 -50.3,-39.76 -13.4,-14.95 -23.73,-32.3 -30.76,-52.07 -7.03,-19.78 -10.77,-43.06 -10.77,-70.09 0,-36.91 8.14,-68.76 24.17,-95.35 16.04,-26.57 37.57,-48.33 64.37,-65.24 26.8,-16.91 57.56,-29.43 92.04,-37.34 34.5,-7.91 70.52,-11.87 107.88,-11.87 29.22,0 58.66,2.19 88.74,6.8 30.1,4.39 59.76,11 88.98,19.56l0 157.07c-25.92,-15.15 -53.39,-26.36 -82.82,-33.83 -29.44,-7.47 -58.22,-11.2 -86.57,-11.2 -13.4,0 -25.92,1.09 -37.56,3.51 -11.87,2.19 -22.41,5.71 -31.43,10.32 -9,4.39 -16.03,10.11 -21.08,17.35 -5.28,7.04 -7.7,15.17 -7.7,24.17 0,11.87 3.74,22.19 11.44,30.76 7.9,8.56 17.78,16.03 30.31,22.19 12.52,6.37 26.36,11.87 41.52,16.69 15.17,5.06 30.31,10.11 45.48,15.17 27.02,9.44 51.4,19.78 73.38,30.97 21.75,11.21 40.65,24.17 56.24,39.33 15.59,14.94 27.69,32.51 36.04,52.72 8.34,20.22 12.52,44.16 12.52,72.06 0,39.11 -4.22,75.54 -25.48,100.18 -135.91,157.54 -384.81,83.09 -480.48,23.82zm-473.78 -644.74l0 254.62 77.23 0c104.61,0 156.75,-37.21 156.75,-128.75 0,-89.67 -52.17,-125.87 -156.75,-125.87l-77.23 0z"/>
  </g>
 </g>
</svg>
