<?xml version="1.0" encoding="UTF-8"?>
<!DOCTYPE svg PUBLIC "-//W3C//DTD SVG 1.1//EN" "http://www.w3.org/Graphics/SVG/1.1/DTD/svg11.dtd">
<!-- Creator: CorelDRAW 2021 (64-Bit) -->
<svg xmlns="http://www.w3.org/2000/svg" xml:space="preserve" width="1.99999in" height="2in" version="1.1" shape-rendering="geometricPrecision" text-rendering="geometricPrecision" image-rendering="optimizeQuality" fill-rule="evenodd" clip-rule="evenodd"
viewBox="0 0 1999.99 2000"
 xmlns:xlink="http://www.w3.org/1999/xlink"
 xmlns:xodm="http://www.corel.com/coreldraw/odm/2003">
 <defs>
   <radialGradient id="id0" gradientUnits="userSpaceOnUse" gradientTransform="matrix(1 -0 -0 1 0 0)" cx="1000" cy="1000" r="259.24" fx="1000" fy="1000">
    <stop offset="0" stop-opacity="1" stop-color="white"/>
    <stop offset="1" stop-opacity="1" stop-color="#FCC7C7"/>
   </radialGradient>
 </defs>
 <g id="Layer_x0020_1">
  <metadata id="CorelCorpID_0Corel-Layer"/>
  <rect fill="url(#id0)" x="115.68" y="115.68" width="1768.64" height="1768.64" rx="213.87" ry="213.87"/>
  <g id="_2498924715296">
   <path fill="#381111" fill-rule="nonzero" d="M985.2 830.25l-82.48 6.63c-7.43,-32.7 -18.01,-56.56 -31.76,-71.42 -22.59,-23.86 -50.56,-35.71 -83.74,-35.71 -26.7,0 -50.41,7.43 -70.79,22.28 -26.23,19.12 -46.77,46.93 -62.09,83.58 -15.17,36.81 -23.07,89.11 -23.7,156.9 20.07,-30.5 44.72,-53.25 73.79,-67.94 29.07,-14.85 59.41,-22.28 91.33,-22.28 55.62,0 103.02,20.54 142.2,61.46 39.03,40.93 58.62,93.7 58.62,158.64 0,42.66 -9.16,82.16 -27.49,118.82 -18.48,36.66 -43.61,64.63 -75.84,84.06 -32.07,19.43 -68.57,29.23 -109.34,29.23 -69.36,0 -126.09,-25.6 -170.01,-76.63 -43.77,-51.04 -65.73,-135.25 -65.73,-252.49 0,-131.14 24.33,-226.58 72.84,-286.15 42.34,-51.83 99.39,-77.74 171.28,-77.74 53.41,0 97.33,15.01 131.46,44.87 34.13,29.87 54.67,71.1 61.46,123.88zm-341.29 292.94c0,28.76 6.16,56.25 18.33,82.48 12.17,26.23 29.23,46.14 50.87,59.89 21.81,13.74 44.87,20.7 69.37,20.7 35.55,0 65.89,-14.22 91.01,-42.66 25.12,-28.44 37.76,-66.99 37.76,-115.82 0,-46.93 -12.48,-83.9 -37.29,-110.92 -24.81,-27.02 -56.41,-40.61 -94.8,-40.61 -37.61,0 -69.68,13.59 -95.91,40.61 -26.23,27.02 -39.34,62.41 -39.34,106.34z"/>
   <polygon id="_1" fill="#381111" fill-rule="nonzero" points="1065.67,1343.13 1065.67,664.34 1149.09,664.34 1149.09,1050.98 1346.28,851.1 1454.04,851.1 1266.33,1033.91 1473,1343.13 1370.3,1343.13 1206.92,1091.74 1149.09,1148 1149.09,1343.13 "/>
   <path fill="#FF3F92" fill-rule="nonzero" fill-opacity="0.501961" d="M947.15 865.94l-82.48 6.63c-7.43,-32.7 -18.01,-56.56 -31.76,-71.42 -22.59,-23.86 -50.56,-35.71 -83.74,-35.71 -26.7,0 -50.41,7.43 -70.79,22.28 -26.23,19.12 -46.77,46.93 -62.09,83.58 -15.17,36.81 -23.07,89.11 -23.7,156.9 20.07,-30.5 44.72,-53.25 73.79,-67.94 29.07,-14.85 59.41,-22.28 91.33,-22.28 55.62,0 103.02,20.54 142.2,61.46 39.03,40.93 58.62,93.7 58.62,158.64 0,42.66 -9.16,82.16 -27.49,118.82 -18.48,36.66 -43.61,64.63 -75.84,84.06 -32.07,19.43 -68.57,29.23 -109.34,29.23 -69.36,0 -126.09,-25.6 -170.01,-76.63 -43.77,-51.04 -65.73,-135.25 -65.73,-252.49 0,-131.14 24.33,-226.58 72.84,-286.15 42.34,-51.83 99.39,-77.74 171.28,-77.74 53.41,0 97.33,15.01 131.46,44.87 34.13,29.87 54.67,71.1 61.46,123.88zm-341.29 292.94c0,28.76 6.16,56.25 18.33,82.48 12.17,26.23 29.23,46.14 50.87,59.89 21.81,13.74 44.87,20.7 69.37,20.7 35.55,0 65.89,-14.22 91.01,-42.66 25.12,-28.44 37.76,-66.99 37.76,-115.82 0,-46.93 -12.48,-83.9 -37.29,-110.92 -24.81,-27.02 -56.41,-40.61 -94.8,-40.61 -37.61,0 -69.68,13.59 -95.91,40.61 -26.23,27.02 -39.34,62.41 -39.34,106.34zm421.75 219.94l0 -678.79 83.43 0 0 386.64 197.19 -199.88 107.76 0 -187.71 182.81 206.67 309.22 -102.7 0 -163.38 -251.39 -57.83 56.25 0 195.13 -83.43 0z"/>
   <path fill="#D4C4FF" fill-rule="nonzero" fill-opacity="0.501961" d="M1002.09 778.55l-82.48 6.63c-7.43,-32.7 -18.01,-56.56 -31.76,-71.42 -22.59,-23.86 -50.56,-35.71 -83.74,-35.71 -26.7,0 -50.41,7.43 -70.79,22.28 -26.23,19.12 -46.77,46.93 -62.09,83.58 -15.17,36.81 -23.07,89.11 -23.7,156.9 20.07,-30.5 44.72,-53.25 73.79,-67.94 29.07,-14.85 59.41,-22.28 91.33,-22.28 55.62,0 103.02,20.54 142.2,61.46 39.03,40.93 58.62,93.7 58.62,158.64 0,42.66 -9.16,82.16 -27.49,118.82 -18.48,36.66 -43.61,64.63 -75.84,84.06 -32.07,19.43 -68.57,29.23 -109.34,29.23 -69.36,0 -126.09,-25.6 -170.01,-76.63 -43.77,-51.04 -65.73,-135.25 -65.73,-252.49 0,-131.14 24.33,-226.58 72.84,-286.15 42.34,-51.83 99.39,-77.74 171.28,-77.74 53.41,0 97.33,15.01 131.46,44.87 34.13,29.87 54.67,71.1 61.46,123.88zm-341.29 292.94c0,28.76 6.16,56.25 18.33,82.48 12.17,26.23 29.23,46.14 50.87,59.89 21.81,13.74 44.87,20.7 69.37,20.7 35.55,0 65.89,-14.22 91.01,-42.66 25.12,-28.44 37.76,-66.99 37.76,-115.82 0,-46.93 -12.48,-83.9 -37.29,-110.92 -24.81,-27.02 -56.41,-40.61 -94.8,-40.61 -37.61,0 -69.68,13.59 -95.91,40.61 -26.23,27.02 -39.34,62.41 -39.34,106.34zm421.75 219.94l0 -678.79 83.43 0 0 386.64 197.19 -199.88 107.76 0 -187.71 182.81 206.67 309.22 -102.7 0 -163.38 -251.39 -57.83 56.25 0 195.13 -83.43 0z"/>
  </g>
 </g>
</svg>
