<?xml version="1.0" encoding="UTF-8"?>
<!DOCTYPE svg PUBLIC "-//W3C//DTD SVG 1.1//EN" "http://www.w3.org/Graphics/SVG/1.1/DTD/svg11.dtd">
<!-- Creator: CorelDRAW 2021 (64-Bit) -->
<svg xmlns="http://www.w3.org/2000/svg" xml:space="preserve" width="1.88976in" height="1.88976in" version="1.1" shape-rendering="geometricPrecision" text-rendering="geometricPrecision" image-rendering="optimizeQuality" fill-rule="evenodd" clip-rule="evenodd"
viewBox="0 0 1889.76 1889.76"
 xmlns:xlink="http://www.w3.org/1999/xlink"
 xmlns:xodm="http://www.corel.com/coreldraw/odm/2003">
 <defs>
   <linearGradient id="id0" gradientUnits="userSpaceOnUse" x1="45.36" y1="961.8" x2="1869.28" y2="859.79">
    <stop offset="0" stop-opacity="1" stop-color="#BDB6EB"/>
    <stop offset="1" stop-opacity="1" stop-color="#D7F2FA"/>
   </linearGradient>
    <linearGradient id="id1" gradientUnits="userSpaceOnUse" x1="329.48" y1="958.98" x2="1576.16" y2="886.9">
     <stop offset="0" stop-opacity="1" stop-color="#BDB6EB"/>
     <stop offset="1" stop-opacity="1" stop-color="#D7F2FA"/>
    </linearGradient>
     <linearGradient id="id2" gradientUnits="userSpaceOnUse" x1="350.61" y1="946.77" x2="1558.57" y2="904.8">
      <stop offset="0" stop-opacity="1" stop-color="#C5BFEE"/>
      <stop offset="1" stop-opacity="1" stop-color="#DCF4FB"/>
     </linearGradient>
     <linearGradient id="id3" gradientUnits="userSpaceOnUse" x1="372.44" y1="935.44" x2="1540.74" y2="921.44">
      <stop offset="0" stop-opacity="1" stop-color="#CEC8F0"/>
      <stop offset="1" stop-opacity="1" stop-color="#E1F5FB"/>
     </linearGradient>
     <linearGradient id="id4" gradientUnits="userSpaceOnUse" x1="394.91" y1="925.03" x2="1522.73" y2="936.82">
      <stop offset="0" stop-opacity="1" stop-color="#D6D1F3"/>
      <stop offset="1" stop-opacity="1" stop-color="#E6F7FC"/>
     </linearGradient>
     <linearGradient id="id5" gradientUnits="userSpaceOnUse" x1="417.96" y1="915.58" x2="1504.64" y2="950.94">
      <stop offset="0" stop-opacity="1" stop-color="#DEDBF5"/>
      <stop offset="1" stop-opacity="1" stop-color="#EBF9FD"/>
     </linearGradient>
     <linearGradient id="id6" gradientUnits="userSpaceOnUse" x1="440.18" y1="903.98" x2="1486.59" y2="960.47">
      <stop offset="0" stop-opacity="1" stop-color="#E6E4F8"/>
      <stop offset="1" stop-opacity="1" stop-color="#F0FAFD"/>
     </linearGradient>
     <linearGradient id="id7" gradientUnits="userSpaceOnUse" x1="455.09" y1="890.77" x2="1468.83" y2="966.85">
      <stop offset="0" stop-opacity="1" stop-color="#EFEDFA"/>
      <stop offset="1" stop-opacity="1" stop-color="#F5FCFE"/>
     </linearGradient>
     <linearGradient id="id8" gradientUnits="userSpaceOnUse" x1="470.04" y1="878.5" x2="1451.23" y2="972.34">
      <stop offset="0" stop-opacity="1" stop-color="#F7F6FD"/>
      <stop offset="1" stop-opacity="1" stop-color="#FAFDFE"/>
     </linearGradient>
    <linearGradient id="id9" gradientUnits="userSpaceOnUse" x1="597.96" y1="946.48" x2="1333.11" y2="905.37">
     <stop offset="0" stop-opacity="1" stop-color="#BDB6EB"/>
     <stop offset="1" stop-opacity="1" stop-color="#D7F2FA"/>
    </linearGradient>
     <linearGradient id="id10" gradientUnits="userSpaceOnUse" x1="732.66" y1="914.5" x2="1183.02" y2="914.5">
      <stop offset="0" stop-opacity="1" stop-color="#9AA2AB"/>
      <stop offset="1" stop-opacity="1" stop-color="#6B7780"/>
     </linearGradient>
      <clipPath id="id11">
       <path d="M714.17 670.83l487.34 0 0 487.34 -487.34 0 0 -487.34z"/>
      </clipPath>
     <linearGradient id="id12" gradientUnits="userSpaceOnUse" x1="965.06" y1="725.5" x2="957.84" y2="1101.94">
      <stop offset="0" stop-opacity="1" stop-color="#FBFBFB"/>
      <stop offset="1" stop-opacity="1" stop-color="#D9DDE0"/>
     </linearGradient>
 </defs>
 <g id="Layer_x0020_1">
  <metadata id="CorelCorpID_0Corel-Layer"/>
  <rect fill="url(#id0)" x="61.36" y="64.93" width="1763.47" height="1763.47" rx="284.6" ry="284.6"/>
  <g id="_1939264187776">
   <path fill="url(#id1)" d="M962.83 1409.33c-255.52,0 -462.67,-207.15 -462.67,-462.67 0,-108.44 37.32,-208.16 99.81,-287.03l0 153.89 139.69 0 0 -259.69 0 -139.69 -139.69 0 -259.69 0 0 139.69 191.72 0c-94.56,103.63 -152.24,241.48 -152.24,392.83 0,322.02 261.05,583.07 583.07,583.07 322.02,0 583.07,-261.05 583.07,-583.07 0,-322.02 -261.05,-583.07 -583.07,-583.07 -11.43,0 -22.77,0.37 -34.04,1.02l0 120.63c11.24,-0.82 22.59,-1.25 34.04,-1.25 255.52,0 462.67,207.15 462.67,462.67 0,255.52 -207.15,462.67 -462.67,462.67z"/>
   <g>
    <path fill="url(#id2)" d="M955.34 1394.41c-247.65,-4.21 -445,-208.38 -440.8,-456.03 1.79,-105.1 39.6,-201.13 101.46,-276.55 -0.84,49.72 -1.69,99.43 -2.53,149.15 45.13,0.76 90.26,1.53 135.39,2.3 1.43,-83.89 2.85,-167.79 4.28,-251.69 0.77,-45.13 1.53,-90.26 2.3,-135.39 -45.13,-0.77 -90.26,-1.53 -135.39,-2.3 -83.89,-1.43 -167.79,-2.85 -251.69,-4.28 -0.77,45.13 -1.53,90.26 -2.3,135.39 61.94,1.05 123.87,2.11 185.81,3.16 -93.35,98.88 -151.53,231.54 -154.02,378.22 -5.3,312.1 243.41,569.41 555.51,574.71 312.1,5.3 569.41,-243.41 574.7,-555.51 5.3,-312.1 -243.41,-569.4 -555.51,-574.7 -11.08,-0.19 -22.07,-0.02 -33.01,0.42 -0.66,38.98 -1.32,77.95 -1.98,116.92 10.91,-0.61 21.91,-0.84 33.01,-0.65 247.65,4.2 445,208.38 440.8,456.03 -4.21,247.65 -208.38,445 -456.04,440.8z"/>
    <path fill="url(#id3)" d="M947.85 1379.48c-239.78,-8.41 -427.34,-209.62 -418.93,-449.4 3.57,-101.76 41.87,-194.1 103.11,-266.06 -1.69,48.14 -3.38,96.27 -5.07,144.41 43.69,1.54 87.39,3.07 131.08,4.6 2.85,-81.23 5.7,-162.46 8.55,-243.69 1.53,-43.69 3.06,-87.39 4.6,-131.08 -43.7,-1.53 -87.39,-3.07 -131.08,-4.6 -81.23,-2.85 -162.46,-5.7 -243.69,-8.55 -1.53,43.7 -3.07,87.39 -4.6,131.08 59.97,2.11 119.94,4.21 179.9,6.31 -92.15,94.13 -150.81,221.59 -155.79,363.61 -10.6,302.18 225.77,555.74 527.94,566.34 302.18,10.6 555.74,-225.77 566.34,-527.95 10.6,-302.18 -225.77,-555.74 -527.95,-566.34 -10.72,-0.37 -21.38,-0.41 -31.98,-0.17 -1.32,37.73 -2.65,75.47 -3.97,113.2 10.58,-0.4 21.24,-0.43 31.98,-0.06 239.78,8.41 427.34,209.61 418.93,449.4 -8.41,239.78 -209.61,427.34 -449.39,418.93z"/>
    <path fill="url(#id4)" d="M940.36 1364.56c-231.91,-12.62 -409.68,-210.85 -397.06,-442.76 5.35,-98.42 44.15,-187.08 104.76,-255.57 -2.53,46.56 -5.07,93.11 -7.6,139.67 42.26,2.3 84.52,4.6 126.78,6.9 4.28,-78.56 8.55,-157.12 12.82,-235.69 2.3,-42.26 4.6,-84.52 6.9,-126.78 -42.26,-2.3 -84.52,-4.6 -126.78,-6.9 -78.56,-4.27 -157.12,-8.55 -235.68,-12.82 -2.3,42.26 -4.6,84.52 -6.9,126.78 58,3.16 116,6.31 174,9.47 -90.94,89.38 -150.1,211.65 -157.57,349 -15.9,292.26 208.13,542.07 500.39,557.98 292.26,15.9 542.07,-208.13 557.98,-500.39 15.91,-292.26 -208.13,-542.07 -500.39,-557.97 -10.37,-0.57 -20.68,-0.79 -30.94,-0.76 -1.98,36.5 -3.97,72.99 -5.96,109.48 10.24,-0.19 20.56,-0.02 30.96,0.55 231.91,12.62 409.68,210.85 397.06,442.76 -12.62,231.91 -210.85,409.68 -442.76,397.06z"/>
    <path fill="url(#id5)" d="M932.87 1349.63c-224.03,-16.82 -392.02,-212.09 -375.19,-436.12 7.14,-95.08 46.43,-180.05 106.41,-245.09 -3.38,44.98 -6.76,89.95 -10.13,134.93 40.83,3.07 81.65,6.13 122.48,9.2 5.7,-75.89 11.4,-151.79 17.1,-227.68 3.07,-40.83 6.13,-81.65 9.2,-122.48 -40.82,-3.07 -81.65,-6.13 -122.48,-9.2 -75.89,-5.7 -151.79,-11.4 -227.68,-17.1 -3.07,40.83 -6.13,81.65 -9.2,122.48 56.03,4.21 112.06,8.42 168.09,12.63 -89.73,84.63 -149.38,201.7 -159.35,334.39 -21.2,282.33 190.49,528.41 472.83,549.61 282.34,21.2 528.41,-190.49 549.61,-472.82 21.2,-282.34 -190.49,-528.41 -472.82,-549.61 -10.02,-0.75 -19.99,-1.18 -29.91,-1.35 -2.65,35.26 -5.3,70.52 -7.94,105.77 9.91,0.02 19.89,0.39 29.93,1.15 224.04,16.83 392.02,212.09 375.19,436.12 -16.82,224.04 -212.09,392.02 -436.12,375.19z"/>
    <path fill="url(#id6)" d="M925.38 1334.7c-216.17,-21.03 -374.35,-213.32 -353.32,-429.48 8.93,-91.74 48.7,-173.02 108.06,-234.61 -4.22,43.4 -8.44,86.8 -12.67,130.19 39.39,3.83 78.78,7.67 118.17,11.5 7.13,-73.22 14.25,-146.45 21.38,-219.69 3.83,-39.39 7.67,-78.78 11.5,-118.17 -39.39,-3.83 -78.78,-7.66 -118.17,-11.5 -73.22,-7.13 -146.45,-14.25 -219.69,-21.37 -3.83,39.39 -7.66,78.78 -11.5,118.17 54.06,5.26 108.13,10.52 162.19,15.78 -88.52,79.88 -148.67,191.76 -161.13,319.79 -26.5,272.42 172.85,514.74 445.27,541.25 272.42,26.51 514.74,-172.85 541.25,-445.26 26.5,-272.42 -172.85,-514.74 -445.27,-541.25 -9.67,-0.94 -19.29,-1.56 -28.88,-1.94 -3.31,34.02 -6.62,68.04 -9.93,102.05 9.58,0.24 19.21,0.8 28.9,1.75 216.16,21.03 374.35,213.32 353.32,429.48 -21.03,216.16 -213.32,374.35 -429.48,353.32z"/>
    <path fill="url(#id7)" d="M917.89 1319.78c-208.29,-25.24 -356.69,-214.56 -331.45,-422.85 10.71,-88.4 50.98,-166 109.71,-224.12 -5.07,41.82 -10.13,83.63 -15.2,125.44 37.96,4.6 75.92,9.2 113.87,13.8 8.55,-70.56 17.1,-141.12 25.65,-211.69 4.6,-37.95 9.2,-75.91 13.8,-113.87 -37.96,-4.59 -75.91,-9.2 -113.87,-13.8 -70.56,-8.55 -141.12,-17.1 -211.69,-25.65 -4.59,37.96 -9.2,75.91 -13.8,113.87 52.09,6.31 104.19,12.63 156.28,18.94 -87.32,75.13 -147.95,181.81 -162.9,305.18 -31.81,262.5 155.21,501.08 417.7,532.89 262.5,31.81 501.08,-155.21 532.88,-417.7 31.81,-262.5 -155.2,-501.08 -417.7,-532.89 -9.31,-1.13 -18.59,-1.95 -27.85,-2.53 -3.97,32.78 -7.94,65.56 -11.91,98.33 9.24,0.44 18.54,1.21 27.87,2.34 208.29,25.24 356.69,214.56 331.45,422.85 -25.24,208.29 -214.56,356.69 -422.85,331.45z"/>
    <path fill="url(#id8)" d="M910.4 1304.85c-200.42,-29.44 -339.03,-215.79 -309.58,-416.21 12.49,-85.06 53.26,-158.97 111.36,-213.63 -5.91,40.24 -11.82,80.47 -17.74,120.7 36.52,5.37 73.05,10.74 109.57,16.1 9.98,-67.89 19.95,-135.79 29.93,-203.69 5.37,-36.52 10.73,-73.04 16.09,-109.57 -36.52,-5.36 -73.04,-10.73 -109.57,-16.1 -67.89,-9.97 -135.78,-19.94 -203.68,-29.92 -5.36,36.52 -10.73,73.05 -16.1,109.57 50.13,7.37 100.25,14.73 150.37,22.09 -86.11,70.39 -147.24,171.87 -164.68,290.57 -37.11,252.57 137.57,487.41 390.15,524.52 252.58,37.11 487.41,-137.56 524.52,-390.14 37.11,-252.58 -137.57,-487.41 -390.15,-524.52 -8.96,-1.32 -17.9,-2.33 -26.81,-3.13 -4.63,31.54 -9.27,63.08 -13.9,94.62 8.91,0.65 17.86,1.62 26.85,2.94 200.42,29.44 339.02,215.79 309.58,416.21 -29.44,200.42 -215.79,339.03 -416.21,309.58z"/>
   </g>
   <path fill="white" d="M902.91 1289.93c-192.55,-33.65 -321.37,-217.03 -287.71,-409.57 14.28,-81.72 55.54,-151.94 113.01,-203.15l-20.27 115.96 105.26 18.4 34.2 -195.69 18.39 -105.26 -105.26 -18.4 -195.68 -34.2 -18.4 105.26 144.47 25.25c-84.91,65.63 -146.52,161.92 -166.46,275.96 -42.41,242.65 119.93,473.75 362.59,516.15 242.66,42.41 473.75,-119.93 516.15,-362.58 42.41,-242.66 -119.93,-473.75 -362.58,-516.16 -8.61,-1.5 -17.2,-2.72 -25.78,-3.72l-15.89 90.9c8.58,0.87 17.19,2.04 25.81,3.54 192.55,33.65 321.36,217.02 287.71,409.57 -33.65,192.55 -217.03,321.36 -409.57,287.71z"/>
   <circle fill="url(#id9)" cx="959.8" cy="940.38" r="355.39"/>
   <g>
    <path fill="#4B4F53" d="M1135.1 707.65l29.74 29.74c4.44,4.44 4.43,11.7 0,16.13l-33.52 33.52c-4.44,4.43 -11.7,4.44 -16.14,0l-29.74 -29.74c-4.44,-4.44 -4.44,-11.7 0,-16.14l33.52 -33.52c4.44,-4.44 11.7,-4.44 16.14,0z"/>
    <path fill="url(#id10)" d="M1131.63 1140.42l-347.59 0c-28.26,0 -51.39,-23.13 -51.39,-51.39l0 -166.56c0,-0.93 0.03,-1.86 0.07,-2.78 -0.05,-1.97 -0.08,-3.94 -0.08,-5.93 0,-124.36 100.82,-225.18 225.18,-225.18 124.37,0 225.18,100.81 225.18,225.18 0,1.98 -0.03,3.95 -0.07,5.91 0.05,0.93 0.07,1.86 0.07,2.79l0 166.56c0,28.26 -23.13,51.39 -51.39,51.39z"/>
    <g>
     <g clip-path="url(#id11)">
      <image x="714.17" y="670.83" width="487.34" height="487.34" xlink:href="speed_Images\speed_ImgID1.png"/>
     </g>
    </g>
    <circle fill="url(#id12)" cx="957.84" cy="914.5" r="187.44"/>
    <path fill="#4B4F53" d="M945.24 927.04l0 0c-7.18,-7.18 -7.24,-18.99 0,-26.1l99.03 -97.26c7.24,-7.11 18.93,-7.18 26.1,0l0 0c7.18,7.18 7.24,18.99 0,26.1l-99.03 97.26c-7.24,7.11 -18.93,7.18 -26.1,0z"/>
    <rect fill="#4B4F53" transform="matrix(-0.143435 0.248436 0.248436 0.143435 851.98 841.164)" width="113.31" height="406.52" rx="56.65" ry="56.65"/>
    <rect fill="#D83B01" x="947.01" y="932.02" width="24.32" height="136.83" rx="12.16" ry="12.16"/>
    <circle fill="#1E2021" cx="957.84" cy="914.5" r="33.65"/>
   </g>
  </g>
 </g>
</svg>
