<?xml version="1.0" encoding="UTF-8"?>
<!DOCTYPE svg PUBLIC "-//W3C//DTD SVG 1.1//EN" "http://www.w3.org/Graphics/SVG/1.1/DTD/svg11.dtd">
<!-- Creator: CorelDRAW 2021 (64-Bit) -->
<svg xmlns="http://www.w3.org/2000/svg" xml:space="preserve" width="3.5in" height="2in" version="1.1" shape-rendering="geometricPrecision" text-rendering="geometricPrecision" image-rendering="optimizeQuality" fill-rule="evenodd" clip-rule="evenodd"
viewBox="0 0 3500 2000"
 xmlns:xlink="http://www.w3.org/1999/xlink"
 xmlns:xodm="http://www.corel.com/coreldraw/odm/2003">
 <g id="Layer_x0020_1">
  <metadata id="CorelCorpID_0Corel-Layer"/>
  <path fill="#3E2E7C" d="M2798.6 838.37l-1707.46 0 189.9 -189.9c62.8,-62.8 62.8,-165.53 0,-228.3l0 -0.02c-62.8,-62.8 -165.53,-62.8 -228.32,0l-465.69 465.69c-3.93,3.93 -7.59,8.02 -11.02,12.23l-0.57 0.69 -1.78 2.26 -0.18 0.25 -2.4 3.16 -0.04 0.07 -2.35 3.29 -0.09 0.11 -2.17 3.22 -0.2 0.3 -1.53 2.36 -0.44 0.71 -0.3 0.48 -0.73 1.21 -0.73 1.21 -0.3 0.52 -0.41 0.69 -0.69 1.21 -0.69 1.23 -0.18 0.34 -0.5 0.89 -0.66 1.23 -0.66 1.22 -0.07 0.15 -0.57 1.1 -0.64 1.24 -0.59 1.19 -0.02 0.05 -0.18 0.34 -1.03 2.17 -0.48 1.01 -0.11 0.25 -0.57 1.26 -0.57 1.26 -0.35 0.81 -0.2 0.44 -0.98 2.33 -0.09 0.23 -0.26 0.62 -0.25 0.66 -0.52 1.3 -0.5 1.28 -0.16 0.43 -0.32 0.87 -0.46 1.3 -0.46 1.3 -0.09 0.23 -0.37 1.07 -0.43 1.31 -0.43 1.3 -0.02 0.02 -0.41 1.3 -0.39 1.31 -0.34 1.14 -0.06 0.18 -0.76 2.65 -0.25 0.92 -0.11 0.39 -0.34 1.33 -0.34 1.33 -0.18 0.73 -0.14 0.61 -0.32 1.33 -0.41 1.85 -0.02 0 -0.16 0.81 -0.55 2.7 -0.06 0.3 -0.02 0 -0.41 2.19 -0.27 1.63 -0.02 0 -0.09 0.57 -0.5 3.15 0 0.13 -0.04 0.14c-0.36,2.4 -0.64,4.82 -0.87,7.25l-0.02 0.32 -0.02 0 -0.25 2.93 -0.05 0.94 -0.02 0 -0.19 3.15 -0.04 0.71 -0.13 3.41 0 0.48 -0.06 3.68 0 0.02 0 0.18 0.02 0 0.04 3.87 0 0.11 0.02 0.52 0.07 1.87 0.06 1.41 0.02 0.46 0.11 1.87 0.11 1.53 0.02 0.33 0.16 1.87 0.14 1.67 0.02 0.19 0.19 1.87 0.21 1.8 0 0.06 0.23 1.87 0.25 1.85 0.02 0.09c0.71,4.91 1.62,9.81 2.79,14.65l0.16 0.64c1.23,5.05 2.69,10.04 4.41,14.98l0.21 0.62 0.64 1.78 0.48 1.28 0.18 0.5c1.79,4.71 3.78,9.35 6.04,13.92l0.04 0.06 1.69 3.34 0.11 0.18 1.71 3.2 0.18 0.3c1.19,2.13 2.4,4.25 3.7,6.33l0.34 0.55 0.67 1.08 1.05 1.62 0.44 0.68 0.62 0.94 1.08 1.6 0.55 0.78 4.02 5.53 0.76 1 2.52 3.18 0.36 0.44 1.26 1.51 1.02 1.19 0.26 0.32 2.44 2.76 0.18 0.21 1.35 1.46 1.28 1.37 0.09 0.09 1.39 1.44 1.4 1.42 0.02 0.02 465.69 465.69c62.8,62.8 165.53,62.8 228.32,0l0 -0.02c62.8,-62.78 62.8,-165.51 0,-228.3l-190.27 -190.27 1707.81 0c88.8,0 161.44,-72.64 161.44,-161.44l0 -0.02c0,-88.8 -72.64,-161.44 -161.44,-161.44z"/>
 </g>
</svg>
